<?xml version="1.0" encoding="UTF-8" standalone="no"?>
<!DOCTYPE svg PUBLIC "-//W3C//DTD SVG 1.1//EN"
 "http://www.w3.org/Graphics/SVG/1.1/DTD/svg11.dtd">
<!-- Generated by graphviz version 2.42.4 (0)
 -->
<!-- Title: G Pages: 1 -->
<svg width="1939pt" height="656pt"
 viewBox="0.00 0.00 1938.61 656.40" xmlns="http://www.w3.org/2000/svg" xmlns:xlink="http://www.w3.org/1999/xlink">
<g id="graph0" class="graph" transform="scale(1 1) rotate(0) translate(25.2 631.2)">
<title>G</title>
<polygon fill="white" stroke="transparent" points="-25.2,25.2 -25.2,-631.2 1913.41,-631.2 1913.41,25.2 -25.2,25.2"/>
<text text-anchor="middle" x="944.1" y="-586" font-family="DejaVu Sans" font-size="20.00">Package 1 &#45; Booking &amp; Quản lý đơn hàng</text>
<g id="clust1" class="cluster">
<title>cluster_sys</title>
<path fill="white" stroke="#b8c4d0" stroke-dasharray="5,2" d="M172,-190C172,-190 1868.21,-190 1868.21,-190 1874.21,-190 1880.21,-196 1880.21,-202 1880.21,-202 1880.21,-556 1880.21,-556 1880.21,-562 1874.21,-568 1868.21,-568 1868.21,-568 172,-568 172,-568 166,-568 160,-562 160,-556 160,-556 160,-202 160,-202 160,-196 166,-190 172,-190"/>
<text text-anchor="middle" x="1020.1" y="-548" font-family="DejaVu Sans" font-size="20.00">Hệ thống Logistic Medcon</text>
</g>
<!-- actor -->
<g id="node1" class="node">
<title>actor</title>
<text text-anchor="middle" x="58.5" y="-14.9" font-family="DejaVu Sans" font-size="12.00">actor</text>
</g>
<!-- usecase -->
<g id="node2" class="node">
<title>usecase</title>
<ellipse fill="#f7faff" stroke="#3b6ea8" stroke-width="1.2" cx="58.5" cy="-86" rx="40.03" ry="18"/>
<text text-anchor="middle" x="58.5" y="-82.9" font-family="DejaVu Sans" font-size="12.00">usecase</text>
</g>
<!-- system -->
<g id="node3" class="node">
<title>system</title>
<path fill="none" stroke="#9aa7b3" stroke-width="1.2" d="M76,-172C76,-172 41,-172 41,-172 35,-172 29,-166 29,-160 29,-160 29,-148 29,-148 29,-142 35,-136 41,-136 41,-136 76,-136 76,-136 82,-136 88,-142 88,-148 88,-148 88,-160 88,-160 88,-166 82,-172 76,-172"/>
<text text-anchor="middle" x="58.5" y="-150.9" font-family="DejaVu Sans" font-size="12.00">system</text>
</g>
<!-- KhachGui -->
<g id="node4" class="node">
<title>KhachGui</title>
<text text-anchor="start" x="43.5" y="-446.8" font-family="DejaVu Sans" font-size="24.00">👤</text>
<text text-anchor="start" x="12.5" y="-424.4" font-family="DejaVu Sans" font-size="12.00">Khách gửi hàng</text>
</g>
<!-- TaoBooking -->
<g id="node8" class="node">
<title>TaoBooking</title>
<ellipse fill="#f7faff" stroke="#3b6ea8" cx="544.62" cy="-409" rx="63.78" ry="24.08"/>
<text text-anchor="middle" x="544.62" y="-412.4" font-family="DejaVu Sans" font-size="12.00">Tạo booking</text>
<text text-anchor="middle" x="544.62" y="-399.4" font-family="DejaVu Sans" font-size="12.00">thủ công</text>
</g>
<!-- KhachGui&#45;&gt;TaoBooking -->
<g id="edge1" class="edge">
<title>KhachGui&#45;&gt;TaoBooking</title>
<path fill="none" stroke="#555555" d="M117.14,-422.88C117.14,-422.88 485.44,-422.88 485.44,-422.88"/>
<polygon fill="#555555" stroke="#555555" points="485.44,-425.33 492.44,-422.88 485.44,-420.43 485.44,-425.33"/>
</g>
<!-- InPhieu -->
<g id="node14" class="node">
<title>InPhieu</title>
<ellipse fill="#f7faff" stroke="#3b6ea8" cx="260.63" cy="-376" rx="52.88" ry="18"/>
<text text-anchor="middle" x="260.63" y="-372.9" font-family="DejaVu Sans" font-size="12.00">In phiếu gửi</text>
</g>
<!-- KhachGui&#45;&gt;InPhieu -->
<g id="edge9" class="edge">
<title>KhachGui&#45;&gt;InPhieu</title>
<path fill="none" stroke="#555555" d="M117.13,-419.75C177,-419.75 261.21,-419.75 261.21,-419.75 261.21,-419.75 261.21,-401.05 261.21,-401.05"/>
<polygon fill="#555555" stroke="#555555" points="263.66,-401.05 261.21,-394.05 258.76,-401.05 263.66,-401.05"/>
</g>
<!-- TaoQRDon -->
<g id="node15" class="node">
<title>TaoQRDon</title>
<ellipse fill="#f7faff" stroke="#3b6ea8" cx="260.63" cy="-512" rx="72.78" ry="18"/>
<text text-anchor="middle" x="260.63" y="-508.9" font-family="DejaVu Sans" font-size="12.00">Tạo QR tổng đơn</text>
</g>
<!-- KhachGui&#45;&gt;TaoQRDon -->
<g id="edge10" class="edge">
<title>KhachGui&#45;&gt;TaoQRDon</title>
<path fill="none" stroke="#555555" d="M59.21,-474.82C59.21,-492.81 59.21,-512 59.21,-512 59.21,-512 180.91,-512 180.91,-512"/>
<polygon fill="#555555" stroke="#555555" points="180.91,-514.45 187.91,-512 180.91,-509.55 180.91,-514.45"/>
</g>
<!-- TaoQRKien -->
<g id="node16" class="node">
<title>TaoQRKien</title>
<ellipse fill="#f7faff" stroke="#3b6ea8" cx="260.63" cy="-444" rx="73.74" ry="18"/>
<text text-anchor="middle" x="260.63" y="-440.9" font-family="DejaVu Sans" font-size="12.00">Tạo QR từng kiện</text>
</g>
<!-- KhachGui&#45;&gt;TaoQRKien -->
<g id="edge11" class="edge">
<title>KhachGui&#45;&gt;TaoQRKien</title>
<path fill="none" stroke="#555555" d="M117.24,-444C117.24,-444 179.63,-444 179.63,-444"/>
<polygon fill="#555555" stroke="#555555" points="179.63,-446.45 186.63,-444 179.63,-441.55 179.63,-446.45"/>
</g>
<!-- TheoDoiDon -->
<g id="node18" class="node">
<title>TheoDoiDon</title>
<ellipse fill="#f7faff" stroke="#3b6ea8" cx="260.63" cy="-302" rx="92.76" ry="24.08"/>
<text text-anchor="middle" x="260.63" y="-305.4" font-family="DejaVu Sans" font-size="12.00">Theo dõi trạng thái</text>
<text text-anchor="middle" x="260.63" y="-292.4" font-family="DejaVu Sans" font-size="12.00">đơn / kiện</text>
</g>
<!-- KhachGui&#45;&gt;TheoDoiDon -->
<g id="edge13" class="edge">
<title>KhachGui&#45;&gt;TheoDoiDon</title>
<path fill="none" stroke="#555555" d="M117.3,-416.62C147.57,-416.62 178.21,-416.62 178.21,-416.62 178.21,-416.62 178.21,-319.99 178.21,-319.99"/>
<polygon fill="#555555" stroke="#555555" points="180.66,-319.99 178.21,-312.99 175.76,-319.99 180.66,-319.99"/>
</g>
<!-- PhanMemKho -->
<g id="node5" class="node">
<title>PhanMemKho</title>
<polygon fill="none" stroke="black" points="112,-240 5,-240 5,-236 1,-236 1,-232 5,-232 5,-212 1,-212 1,-208 5,-208 5,-204 112,-204 112,-240"/>
<polyline fill="none" stroke="black" points="5,-236 9,-236 9,-232 5,-232 "/>
<polyline fill="none" stroke="black" points="5,-212 9,-212 9,-208 5,-208 "/>
<text text-anchor="middle" x="58.5" y="-225.4" font-family="DejaVu Sans" font-size="12.00">Phần mềm kho</text>
<text text-anchor="middle" x="58.5" y="-212.4" font-family="DejaVu Sans" font-size="12.00">(WMS/ERP)</text>
</g>
<!-- DayDonKho -->
<g id="node9" class="node">
<title>DayDonKho</title>
<ellipse fill="#f7faff" stroke="#3b6ea8" cx="260.63" cy="-222" rx="75.82" ry="24.08"/>
<text text-anchor="middle" x="260.63" y="-225.4" font-family="DejaVu Sans" font-size="12.00">Nhận đơn từ</text>
<text text-anchor="middle" x="260.63" y="-212.4" font-family="DejaVu Sans" font-size="12.00">phần mềm kho</text>
</g>
<!-- PhanMemKho&#45;&gt;DayDonKho -->
<g id="edge2" class="edge">
<title>PhanMemKho&#45;&gt;DayDonKho</title>
<path fill="none" stroke="#555555" d="M112.14,-222C112.14,-222 177.68,-222 177.68,-222"/>
<polygon fill="#555555" stroke="#555555" points="177.68,-224.45 184.68,-222 177.68,-219.55 177.68,-224.45"/>
</g>
<!-- DieuPhoi -->
<g id="node6" class="node">
<title>DieuPhoi</title>
<text text-anchor="start" x="43.5" y="-305.8" font-family="DejaVu Sans" font-size="24.00">👤</text>
<text text-anchor="start" x="16.5" y="-283.4" font-family="DejaVu Sans" font-size="12.00">Điều phối viên</text>
</g>
<!-- DieuPhoi&#45;&gt;TheoDoiDon -->
<g id="edge12" class="edge">
<title>DieuPhoi&#45;&gt;TheoDoiDon</title>
<path fill="none" stroke="#555555" d="M113.2,-302C113.2,-302 160.72,-302 160.72,-302"/>
<polygon fill="#555555" stroke="#555555" points="160.72,-304.45 167.72,-302 160.72,-299.55 160.72,-304.45"/>
</g>
<!-- KeToan -->
<g id="node7" class="node">
<title>KeToan</title>
<text text-anchor="start" x="1514.03" y="-151.8" font-family="DejaVu Sans" font-size="24.00">👤</text>
<text text-anchor="start" x="1506.53" y="-129.4" font-family="DejaVu Sans" font-size="12.00">Kế toán</text>
</g>
<!-- PhatSinhCuoc -->
<g id="node17" class="node">
<title>PhatSinhCuoc</title>
<ellipse fill="#fff9f0" stroke="#c47a00" cx="1798.67" cy="-227" rx="73.58" ry="24.08"/>
<text text-anchor="middle" x="1798.67" y="-230.4" font-family="DejaVu Sans" font-size="12.00">Phát sinh cước</text>
<text text-anchor="middle" x="1798.67" y="-217.4" font-family="DejaVu Sans" font-size="12.00">dự kiến</text>
</g>
<!-- KeToan&#45;&gt;PhatSinhCuoc -->
<g id="edge14" class="edge">
<title>KeToan&#45;&gt;PhatSinhCuoc</title>
<path fill="none" stroke="#555555" d="M1564.78,-149C1637.88,-149 1799.21,-149 1799.21,-149 1799.21,-149 1799.21,-195.75 1799.21,-195.75"/>
<polygon fill="#555555" stroke="#555555" points="1796.76,-195.75 1799.21,-202.75 1801.66,-195.75 1796.76,-195.75"/>
</g>
<!-- KiemTraBatBuoc -->
<g id="node12" class="node">
<title>KiemTraBatBuoc</title>
<ellipse fill="#f7faff" stroke="#3b6ea8" cx="854.07" cy="-236" rx="118.17" ry="24.08"/>
<text text-anchor="middle" x="854.07" y="-239.4" font-family="DejaVu Sans" font-size="12.00">Kiểm tra trường bắt buộc</text>
<text text-anchor="middle" x="854.07" y="-226.4" font-family="DejaVu Sans" font-size="12.00">khối lượng / kích thước</text>
</g>
<!-- TaoBooking&#45;&gt;KiemTraBatBuoc -->
<g id="edge3" class="edge">
<title>TaoBooking&#45;&gt;KiemTraBatBuoc</title>
<path fill="none" stroke="#555555" d="M608.39,-409C699.02,-409 854.21,-409 854.21,-409 854.21,-409 854.21,-267.05 854.21,-267.05"/>
<polygon fill="#555555" stroke="#555555" points="856.66,-267.05 854.21,-260.05 851.76,-267.05 856.66,-267.05"/>
<text text-anchor="middle" x="692.98" y="-348" font-family="DejaVu Sans" font-size="10.00">include</text>
</g>
<!-- ChinhSuaDon -->
<g id="node10" class="node">
<title>ChinhSuaDon</title>
<ellipse fill="#f7faff" stroke="#3b6ea8" cx="544.62" cy="-232" rx="105.22" ry="24.08"/>
<text text-anchor="middle" x="544.62" y="-235.4" font-family="DejaVu Sans" font-size="12.00">Chỉnh sửa / chuẩn hóa</text>
<text text-anchor="middle" x="544.62" y="-222.4" font-family="DejaVu Sans" font-size="12.00">dữ liệu vận hành</text>
</g>
<!-- DayDonKho&#45;&gt;ChinhSuaDon -->
<g id="edge4" class="edge">
<title>DayDonKho&#45;&gt;ChinhSuaDon</title>
<path fill="none" stroke="#555555" d="M334.88,-227C334.88,-227 434.43,-227 434.43,-227"/>
<polygon fill="#555555" stroke="#555555" points="434.43,-229.45 441.43,-227 434.43,-224.55 434.43,-229.45"/>
<text text-anchor="middle" x="396.26" y="-234" font-family="DejaVu Sans" font-size="10.00">include</text>
</g>
<!-- ChinhSuaDon&#45;&gt;KiemTraBatBuoc -->
<g id="edge5" class="edge">
<title>ChinhSuaDon&#45;&gt;KiemTraBatBuoc</title>
<path fill="none" stroke="#555555" d="M649.82,-234C649.82,-234 729.13,-234 729.13,-234"/>
<polygon fill="#555555" stroke="#555555" points="729.13,-236.45 736.13,-234 729.13,-231.55 729.13,-236.45"/>
<text text-anchor="middle" x="692.98" y="-237" font-family="DejaVu Sans" font-size="10.00">include</text>
</g>
<!-- PhanLoaiDon -->
<g id="node11" class="node">
<title>PhanLoaiDon</title>
<ellipse fill="#f7faff" stroke="#3b6ea8" cx="1196.04" cy="-236" rx="137.77" ry="24.08"/>
<text text-anchor="middle" x="1196.04" y="-239.4" font-family="DejaVu Sans" font-size="12.00">Phân loại đơn</text>
<text text-anchor="middle" x="1196.04" y="-226.4" font-family="DejaVu Sans" font-size="12.00">Dịch vụ &#45; hàng hóa &#45; điều kiện</text>
</g>
<!-- TiepNhan -->
<g id="node13" class="node">
<title>TiepNhan</title>
<ellipse fill="#f7faff" stroke="#3b6ea8" cx="1529.53" cy="-236" rx="109.7" ry="24.08"/>
<text text-anchor="middle" x="1529.53" y="-239.4" font-family="DejaVu Sans" font-size="12.00">Tiếp nhận đơn</text>
<text text-anchor="middle" x="1529.53" y="-226.4" font-family="DejaVu Sans" font-size="12.00">trạng thái Đã tiếp nhận</text>
</g>
<!-- PhanLoaiDon&#45;&gt;TiepNhan -->
<g id="edge7" class="edge">
<title>PhanLoaiDon&#45;&gt;TiepNhan</title>
<path fill="none" stroke="#555555" d="M1334.09,-236C1334.09,-236 1412.81,-236 1412.81,-236"/>
<polygon fill="#555555" stroke="#555555" points="1412.81,-238.45 1419.81,-236 1412.81,-233.55 1412.81,-238.45"/>
<text text-anchor="middle" x="1376.93" y="-239" font-family="DejaVu Sans" font-size="10.00">include</text>
</g>
<!-- KiemTraBatBuoc&#45;&gt;PhanLoaiDon -->
<g id="edge6" class="edge">
<title>KiemTraBatBuoc&#45;&gt;PhanLoaiDon</title>
<path fill="none" stroke="#555555" d="M972.23,-236C972.23,-236 1050.87,-236 1050.87,-236"/>
<polygon fill="#555555" stroke="#555555" points="1050.87,-238.45 1057.87,-236 1050.87,-233.55 1050.87,-238.45"/>
<text text-anchor="middle" x="1015.15" y="-239" font-family="DejaVu Sans" font-size="10.00">include</text>
</g>
<!-- TiepNhan&#45;&gt;PhatSinhCuoc -->
<g id="edge8" class="edge">
<title>TiepNhan&#45;&gt;PhatSinhCuoc</title>
<path fill="none" stroke="#555555" d="M1637.45,-231.5C1637.45,-231.5 1719.22,-231.5 1719.22,-231.5"/>
<polygon fill="#555555" stroke="#555555" points="1719.22,-233.95 1726.22,-231.5 1719.22,-229.05 1719.22,-233.95"/>
<text text-anchor="middle" x="1682.13" y="-235" font-family="DejaVu Sans" font-size="10.00">include</text>
</g>
</g>
</svg>
