<?xml version="1.0" encoding="UTF-8" standalone="no"?>
<!DOCTYPE svg PUBLIC "-//W3C//DTD SVG 1.1//EN"
 "http://www.w3.org/Graphics/SVG/1.1/DTD/svg11.dtd">
<!-- Generated by graphviz version 2.42.4 (0)
 -->
<!-- Title: G Pages: 1 -->
<svg width="1034pt" height="945pt"
 viewBox="0.00 0.00 1034.30 945.40" xmlns="http://www.w3.org/2000/svg" xmlns:xlink="http://www.w3.org/1999/xlink">
<g id="graph0" class="graph" transform="scale(1 1) rotate(0) translate(25.2 920.2)">
<title>G</title>
<polygon fill="white" stroke="transparent" points="-25.2,25.2 -25.2,-920.2 1009.1,-920.2 1009.1,25.2 -25.2,25.2"/>
<text text-anchor="middle" x="491.95" y="-875" font-family="DejaVu Sans" font-size="20.00">Package 2 &#45; Điều phối &amp; Lấy hàng</text>
<g id="clust1" class="cluster">
<title>cluster_sys</title>
<path fill="white" stroke="#b8c4d0" stroke-dasharray="5,2" d="M215,-135C215,-135 963.9,-135 963.9,-135 969.9,-135 975.9,-141 975.9,-147 975.9,-147 975.9,-845 975.9,-845 975.9,-851 969.9,-857 963.9,-857 963.9,-857 215,-857 215,-857 209,-857 203,-851 203,-845 203,-845 203,-147 203,-147 203,-141 209,-135 215,-135"/>
<text text-anchor="middle" x="589.45" y="-837" font-family="DejaVu Sans" font-size="20.00">Hệ thống Logistic Medcon</text>
</g>
<!-- actor -->
<g id="node1" class="node">
<title>actor</title>
<text text-anchor="middle" x="80" y="-14.9" font-family="DejaVu Sans" font-size="12.00">actor</text>
</g>
<!-- usecase -->
<g id="node2" class="node">
<title>usecase</title>
<ellipse fill="#f7faff" stroke="#3b6ea8" stroke-width="1.2" cx="80" cy="-86" rx="40.03" ry="18"/>
<text text-anchor="middle" x="80" y="-82.9" font-family="DejaVu Sans" font-size="12.00">usecase</text>
</g>
<!-- system -->
<g id="node3" class="node">
<title>system</title>
<path fill="none" stroke="#9aa7b3" stroke-width="1.2" d="M97.5,-172C97.5,-172 62.5,-172 62.5,-172 56.5,-172 50.5,-166 50.5,-160 50.5,-160 50.5,-148 50.5,-148 50.5,-142 56.5,-136 62.5,-136 62.5,-136 97.5,-136 97.5,-136 103.5,-136 109.5,-142 109.5,-148 109.5,-148 109.5,-160 109.5,-160 109.5,-166 103.5,-172 97.5,-172"/>
<text text-anchor="middle" x="80" y="-150.9" font-family="DejaVu Sans" font-size="12.00">system</text>
</g>
<!-- DieuPhoiTong -->
<g id="node4" class="node">
<title>DieuPhoiTong</title>
<text text-anchor="start" x="64.5" y="-675.8" font-family="DejaVu Sans" font-size="24.00">👤</text>
<text text-anchor="start" x="12" y="-653.4" font-family="DejaVu Sans" font-size="12.00">Điều phối công ty tổng</text>
</g>
<!-- DuyetDon -->
<g id="node9" class="node">
<title>DuyetDon</title>
<ellipse fill="#f7faff" stroke="#3b6ea8" cx="312.12" cy="-715" rx="65.11" ry="24.08"/>
<text text-anchor="middle" x="312.12" y="-718.4" font-family="DejaVu Sans" font-size="12.00">Duyệt đơn</text>
<text text-anchor="middle" x="312.12" y="-705.4" font-family="DejaVu Sans" font-size="12.00">đã tiếp nhận</text>
</g>
<!-- DieuPhoiTong&#45;&gt;DuyetDon -->
<g id="edge1" class="edge">
<title>DieuPhoiTong&#45;&gt;DuyetDon</title>
<path fill="none" stroke="#555555" d="M160.21,-697.23C160.21,-697.23 261.1,-697.23 261.1,-697.23"/>
<polygon fill="#555555" stroke="#555555" points="261.1,-699.68 268.1,-697.23 261.1,-694.78 261.1,-699.68"/>
</g>
<!-- PhanCongCapDuoi -->
<g id="node10" class="node">
<title>PhanCongCapDuoi</title>
<ellipse fill="#f7faff" stroke="#3b6ea8" cx="312.12" cy="-635" rx="84.71" ry="24.08"/>
<text text-anchor="middle" x="312.12" y="-638.4" font-family="DejaVu Sans" font-size="12.00">Phân công xuống</text>
<text text-anchor="middle" x="312.12" y="-625.4" font-family="DejaVu Sans" font-size="12.00">cấp dưới</text>
</g>
<!-- DieuPhoiTong&#45;&gt;PhanCongCapDuoi -->
<g id="edge2" class="edge">
<title>DieuPhoiTong&#45;&gt;PhanCongCapDuoi</title>
<path fill="none" stroke="#555555" d="M160.21,-653.53C160.21,-653.53 250.82,-653.53 250.82,-653.53"/>
<polygon fill="#555555" stroke="#555555" points="250.82,-655.98 257.82,-653.53 250.82,-651.08 250.82,-655.98"/>
</g>
<!-- PhanCongNhanVien -->
<g id="node11" class="node">
<title>PhanCongNhanVien</title>
<ellipse fill="#f7faff" stroke="#3b6ea8" cx="312.12" cy="-555" rx="100.32" ry="24.08"/>
<text text-anchor="middle" x="312.12" y="-558.4" font-family="DejaVu Sans" font-size="12.00">Phân công nhân viên</text>
<text text-anchor="middle" x="312.12" y="-545.4" font-family="DejaVu Sans" font-size="12.00">/ tài xế lấy hàng</text>
</g>
<!-- DieuPhoiTong&#45;&gt;PhanCongNhanVien -->
<g id="edge3" class="edge">
<title>DieuPhoiTong&#45;&gt;PhanCongNhanVien</title>
<path fill="none" stroke="#555555" d="M160.16,-648.01C191.42,-648.01 219.9,-648.01 219.9,-648.01 219.9,-648.01 219.9,-571.6 219.9,-571.6"/>
<polygon fill="#555555" stroke="#555555" points="222.35,-571.6 219.9,-564.6 217.45,-571.6 222.35,-571.6"/>
</g>
<!-- DieuPhoiTinh -->
<g id="node5" class="node">
<title>DieuPhoiTinh</title>
<text text-anchor="start" x="65" y="-558.8" font-family="DejaVu Sans" font-size="24.00">👤</text>
<text text-anchor="start" x="15" y="-536.4" font-family="DejaVu Sans" font-size="12.00">Điều phối công ty tỉnh</text>
</g>
<!-- DieuPhoiTinh&#45;&gt;PhanCongCapDuoi -->
<g id="edge5" class="edge">
<title>DieuPhoiTinh&#45;&gt;PhanCongCapDuoi</title>
<path fill="none" stroke="#555555" d="M157.55,-582.77C225.3,-582.77 312.9,-582.77 312.9,-582.77 312.9,-582.77 312.9,-603.72 312.9,-603.72"/>
<polygon fill="#555555" stroke="#555555" points="310.45,-603.72 312.9,-610.72 315.35,-603.72 310.45,-603.72"/>
</g>
<!-- DieuPhoiTinh&#45;&gt;PhanCongNhanVien -->
<g id="edge6" class="edge">
<title>DieuPhoiTinh&#45;&gt;PhanCongNhanVien</title>
<path fill="none" stroke="#555555" d="M157.61,-555C157.61,-555 204.46,-555 204.46,-555"/>
<polygon fill="#555555" stroke="#555555" points="204.46,-557.45 211.46,-555 204.46,-552.55 204.46,-557.45"/>
</g>
<!-- TiepNhanTang -->
<g id="node12" class="node">
<title>TiepNhanTang</title>
<ellipse fill="#f7faff" stroke="#3b6ea8" cx="312.12" cy="-475" rx="66.44" ry="24.08"/>
<text text-anchor="middle" x="312.12" y="-478.4" font-family="DejaVu Sans" font-size="12.00">Tiếp nhận tại</text>
<text text-anchor="middle" x="312.12" y="-465.4" font-family="DejaVu Sans" font-size="12.00">từng tầng</text>
</g>
<!-- DieuPhoiTinh&#45;&gt;TiepNhanTang -->
<g id="edge4" class="edge">
<title>DieuPhoiTinh&#45;&gt;TiepNhanTang</title>
<path fill="none" stroke="#555555" d="M147.9,-525.44C147.9,-508.28 147.9,-490.27 147.9,-490.27 147.9,-490.27 253.61,-490.27 253.61,-490.27"/>
<polygon fill="#555555" stroke="#555555" points="253.61,-492.72 260.61,-490.27 253.61,-487.82 253.61,-492.72"/>
</g>
<!-- Hub -->
<g id="node6" class="node">
<title>Hub</title>
<text text-anchor="start" x="64.5" y="-453.8" font-family="DejaVu Sans" font-size="24.00">👤</text>
<text text-anchor="start" x="44" y="-431.4" font-family="DejaVu Sans" font-size="12.00">Hub liên kết</text>
</g>
<!-- Hub&#45;&gt;PhanCongNhanVien -->
<g id="edge8" class="edge">
<title>Hub&#45;&gt;PhanCongNhanVien</title>
<path fill="none" stroke="#555555" d="M128.27,-471.32C167.68,-471.32 216.9,-471.32 216.9,-471.32 216.9,-471.32 216.9,-540.28 216.9,-540.28"/>
<polygon fill="#555555" stroke="#555555" points="214.45,-540.28 216.9,-547.28 219.35,-540.28 214.45,-540.28"/>
</g>
<!-- Hub&#45;&gt;TiepNhanTang -->
<g id="edge7" class="edge">
<title>Hub&#45;&gt;TiepNhanTang</title>
<path fill="none" stroke="#555555" d="M128.09,-461.14C128.09,-461.14 250.58,-461.14 250.58,-461.14"/>
<polygon fill="#555555" stroke="#555555" points="250.58,-463.59 257.58,-461.14 250.58,-458.69 250.58,-463.59"/>
</g>
<!-- TaiXe -->
<g id="node7" class="node">
<title>TaiXe</title>
<text text-anchor="start" x="65" y="-237.8" font-family="DejaVu Sans" font-size="24.00">👤</text>
<text text-anchor="start" x="35" y="-215.4" font-family="DejaVu Sans" font-size="12.00">Tài xế / shipper</text>
</g>
<!-- XacNhanLay -->
<g id="node14" class="node">
<title>XacNhanLay</title>
<ellipse fill="#f7faff" stroke="#3b6ea8" cx="312.12" cy="-315" rx="90.52" ry="24.08"/>
<text text-anchor="middle" x="312.12" y="-318.4" font-family="DejaVu Sans" font-size="12.00">Xác nhận có người</text>
<text text-anchor="middle" x="312.12" y="-305.4" font-family="DejaVu Sans" font-size="12.00">lấy hàng trực tiếp</text>
</g>
<!-- TaiXe&#45;&gt;XacNhanLay -->
<g id="edge9" class="edge">
<title>TaiXe&#45;&gt;XacNhanLay</title>
<path fill="none" stroke="#555555" d="M134.9,-265.7C134.9,-288.26 134.9,-315 134.9,-315 134.9,-315 214.43,-315 214.43,-315"/>
<polygon fill="#555555" stroke="#555555" points="214.43,-317.45 221.43,-315 214.43,-312.55 214.43,-317.45"/>
</g>
<!-- KiemDem -->
<g id="node16" class="node">
<title>KiemDem</title>
<ellipse fill="#f7faff" stroke="#3b6ea8" cx="312.12" cy="-161" rx="75.94" ry="18"/>
<text text-anchor="middle" x="312.12" y="-157.9" font-family="DejaVu Sans" font-size="12.00">Kiểm đếm số kiện</text>
</g>
<!-- TaiXe&#45;&gt;KiemDem -->
<g id="edge10" class="edge">
<title>TaiXe&#45;&gt;KiemDem</title>
<path fill="none" stroke="#555555" d="M125.9,-204.2C125.9,-189.69 125.9,-175.5 125.9,-175.5 125.9,-175.5 260.04,-175.5 260.04,-175.5"/>
<polygon fill="#555555" stroke="#555555" points="260.04,-177.95 267.04,-175.5 260.04,-173.05 260.04,-177.95"/>
</g>
<!-- GhiTinhTrang -->
<g id="node17" class="node">
<title>GhiTinhTrang</title>
<ellipse fill="#f7faff" stroke="#3b6ea8" cx="607.42" cy="-167" rx="89.61" ry="24.08"/>
<text text-anchor="middle" x="607.42" y="-170.4" font-family="DejaVu Sans" font-size="12.00">Ghi tình trạng kiện</text>
<text text-anchor="middle" x="607.42" y="-157.4" font-family="DejaVu Sans" font-size="12.00">ảnh / ghi chú</text>
</g>
<!-- TaiXe&#45;&gt;GhiTinhTrang -->
<g id="edge11" class="edge">
<title>TaiXe&#45;&gt;GhiTinhTrang</title>
<path fill="none" stroke="#555555" d="M131.9,-204.49C131.9,-194.08 131.9,-185.02 131.9,-185.02 131.9,-185.02 540.68,-185.02 540.68,-185.02"/>
<polygon fill="#555555" stroke="#555555" points="540.68,-187.47 547.68,-185.02 540.68,-182.57 540.68,-187.47"/>
</g>
<!-- LayThatBai -->
<g id="node19" class="node">
<title>LayThatBai</title>
<ellipse fill="#fff3f0" stroke="#c44d32" cx="312.12" cy="-235" rx="88.28" ry="24.08"/>
<text text-anchor="middle" x="312.12" y="-238.4" font-family="DejaVu Sans" font-size="12.00">Cập nhật lấy hàng</text>
<text text-anchor="middle" x="312.12" y="-225.4" font-family="DejaVu Sans" font-size="12.00">không thành công</text>
</g>
<!-- TaiXe&#45;&gt;LayThatBai -->
<g id="edge12" class="edge">
<title>TaiXe&#45;&gt;LayThatBai</title>
<path fill="none" stroke="#555555" d="M137.68,-235C137.68,-235 216.53,-235 216.53,-235"/>
<polygon fill="#555555" stroke="#555555" points="216.53,-237.45 223.53,-235 216.53,-232.55 216.53,-237.45"/>
</g>
<!-- BanGiaoNoiBo -->
<g id="node21" class="node">
<title>BanGiaoNoiBo</title>
<ellipse fill="#f7faff" stroke="#3b6ea8" cx="312.12" cy="-395" rx="77.56" ry="24.08"/>
<text text-anchor="middle" x="312.12" y="-398.4" font-family="DejaVu Sans" font-size="12.00">Bàn giao nội bộ</text>
<text text-anchor="middle" x="312.12" y="-385.4" font-family="DejaVu Sans" font-size="12.00">về điểm nhận</text>
</g>
<!-- TaiXe&#45;&gt;BanGiaoNoiBo -->
<g id="edge13" class="edge">
<title>TaiXe&#45;&gt;BanGiaoNoiBo</title>
<path fill="none" stroke="#555555" d="M131.9,-265.85C131.9,-312.34 131.9,-395 131.9,-395 131.9,-395 227.12,-395 227.12,-395"/>
<polygon fill="#555555" stroke="#555555" points="227.12,-397.45 234.12,-395 227.12,-392.55 227.12,-397.45"/>
</g>
<!-- QuanLy -->
<g id="node8" class="node">
<title>QuanLy</title>
<text text-anchor="start" x="64.5" y="-797.8" font-family="DejaVu Sans" font-size="24.00">👤</text>
<text text-anchor="start" x="27" y="-775.4" font-family="DejaVu Sans" font-size="12.00">Quản lý vận hành</text>
</g>
<!-- TheoDoiNghen -->
<g id="node23" class="node">
<title>TheoDoiNghen</title>
<ellipse fill="#f7faff" stroke="#3b6ea8" cx="312.12" cy="-795" rx="101.23" ry="24.08"/>
<text text-anchor="middle" x="312.12" y="-798.4" font-family="DejaVu Sans" font-size="12.00">Theo dõi điểm nghẽn</text>
<text text-anchor="middle" x="312.12" y="-785.4" font-family="DejaVu Sans" font-size="12.00">điều phối</text>
</g>
<!-- QuanLy&#45;&gt;TheoDoiNghen -->
<g id="edge14" class="edge">
<title>QuanLy&#45;&gt;TheoDoiNghen</title>
<path fill="none" stroke="#555555" d="M145.28,-795C145.28,-795 203.89,-795 203.89,-795"/>
<polygon fill="#555555" stroke="#555555" points="203.89,-797.45 210.89,-795 203.89,-792.55 203.89,-797.45"/>
</g>
<!-- GhiNhanTime -->
<g id="node13" class="node">
<title>GhiNhanTime</title>
<ellipse fill="#f7faff" stroke="#3b6ea8" cx="607.42" cy="-635" rx="108.38" ry="24.08"/>
<text text-anchor="middle" x="607.42" y="-638.4" font-family="DejaVu Sans" font-size="12.00">Ghi nhận thời gian</text>
<text text-anchor="middle" x="607.42" y="-625.4" font-family="DejaVu Sans" font-size="12.00">nhận &#45; xác nhận &#45; xử lý</text>
</g>
<!-- DuyetDon&#45;&gt;GhiNhanTime -->
<g id="edge15" class="edge">
<title>DuyetDon&#45;&gt;GhiNhanTime</title>
<path fill="none" stroke="#555555" d="M377.39,-715C464.5,-715 607.9,-715 607.9,-715 607.9,-715 607.9,-666.44 607.9,-666.44"/>
<polygon fill="#555555" stroke="#555555" points="610.35,-666.44 607.9,-659.44 605.45,-666.44 610.35,-666.44"/>
<text text-anchor="middle" x="456.23" y="-702" font-family="DejaVu Sans" font-size="10.00">include</text>
</g>
<!-- PhanCongCapDuoi&#45;&gt;GhiNhanTime -->
<g id="edge16" class="edge">
<title>PhanCongCapDuoi&#45;&gt;GhiNhanTime</title>
<path fill="none" stroke="#555555" d="M397.13,-635C397.13,-635 492.04,-635 492.04,-635"/>
<polygon fill="#555555" stroke="#555555" points="492.04,-637.45 499.04,-635 492.04,-632.55 492.04,-637.45"/>
<text text-anchor="middle" x="456.23" y="-638" font-family="DejaVu Sans" font-size="10.00">include</text>
</g>
<!-- TiepNhanTang&#45;&gt;GhiNhanTime -->
<g id="edge17" class="edge">
<title>TiepNhanTang&#45;&gt;GhiNhanTime</title>
<path fill="none" stroke="#555555" d="M378.8,-475C436.22,-475 509.9,-475 509.9,-475 509.9,-475 509.9,-617.5 509.9,-617.5"/>
<polygon fill="#555555" stroke="#555555" points="507.45,-617.5 509.9,-624.5 512.35,-617.5 507.45,-617.5"/>
<text text-anchor="middle" x="456.23" y="-534" font-family="DejaVu Sans" font-size="10.00">include</text>
</g>
<!-- DangLayHang -->
<g id="node15" class="node">
<title>DangLayHang</title>
<ellipse fill="#eef8f1" stroke="#2e8b57" cx="607.42" cy="-327" rx="94.09" ry="24.08"/>
<text text-anchor="middle" x="607.42" y="-330.4" font-family="DejaVu Sans" font-size="12.00">Cập nhật trạng thái</text>
<text text-anchor="middle" x="607.42" y="-317.4" font-family="DejaVu Sans" font-size="12.00">Đang lấy hàng</text>
</g>
<!-- XacNhanLay&#45;&gt;DangLayHang -->
<g id="edge18" class="edge">
<title>XacNhanLay&#45;&gt;DangLayHang</title>
<path fill="none" stroke="#555555" d="M399.92,-321C399.92,-321 509.11,-321 509.11,-321"/>
<polygon fill="#555555" stroke="#555555" points="509.11,-323.45 516.11,-321 509.11,-318.55 509.11,-323.45"/>
<text text-anchor="middle" x="456.23" y="-324" font-family="DejaVu Sans" font-size="10.00">include</text>
</g>
<!-- KiemDem&#45;&gt;GhiTinhTrang -->
<g id="edge19" class="edge">
<title>KiemDem&#45;&gt;GhiTinhTrang</title>
<path fill="none" stroke="#555555" d="M388.16,-161C388.16,-161 513.4,-161 513.4,-161"/>
<polygon fill="#555555" stroke="#555555" points="513.4,-163.45 520.4,-161 513.4,-158.55 513.4,-163.45"/>
<text text-anchor="middle" x="456.23" y="-178" font-family="DejaVu Sans" font-size="10.00">include</text>
</g>
<!-- CapNhatSaiLech -->
<g id="node18" class="node">
<title>CapNhatSaiLech</title>
<ellipse fill="#fff3f0" stroke="#c44d32" cx="883.75" cy="-175" rx="84.29" ry="24.08"/>
<text text-anchor="middle" x="883.75" y="-178.4" font-family="DejaVu Sans" font-size="12.00">Ghi nhận sai lệch</text>
<text text-anchor="middle" x="883.75" y="-165.4" font-family="DejaVu Sans" font-size="12.00">thiếu / dư / hỏng</text>
</g>
<!-- GhiTinhTrang&#45;&gt;CapNhatSaiLech -->
<g id="edge20" class="edge">
<title>GhiTinhTrang&#45;&gt;CapNhatSaiLech</title>
<path fill="none" stroke="#555555" d="M695.99,-171C695.99,-171 793.38,-171 793.38,-171"/>
<polygon fill="#555555" stroke="#555555" points="793.38,-173.45 800.38,-171 793.38,-168.55 793.38,-173.45"/>
<text text-anchor="middle" x="757.61" y="-178" font-family="DejaVu Sans" font-size="10.00">extend</text>
</g>
<!-- HuyLay -->
<g id="node20" class="node">
<title>HuyLay</title>
<ellipse fill="#fff3f0" stroke="#c44d32" cx="607.42" cy="-247" rx="102.56" ry="24.08"/>
<text text-anchor="middle" x="607.42" y="-250.4" font-family="DejaVu Sans" font-size="12.00">Hủy lấy</text>
<text text-anchor="middle" x="607.42" y="-237.4" font-family="DejaVu Sans" font-size="12.00">sau điều kiện thất bại</text>
</g>
<!-- LayThatBai&#45;&gt;HuyLay -->
<g id="edge21" class="edge">
<title>LayThatBai&#45;&gt;HuyLay</title>
<path fill="none" stroke="#555555" d="M397.93,-241C397.93,-241 501.12,-241 501.12,-241"/>
<polygon fill="#555555" stroke="#555555" points="501.12,-243.45 508.12,-241 501.12,-238.55 501.12,-243.45"/>
<text text-anchor="middle" x="456.23" y="-244" font-family="DejaVu Sans" font-size="10.00">extend</text>
</g>
<!-- DaLayHang -->
<g id="node22" class="node">
<title>DaLayHang</title>
<ellipse fill="#eef8f1" stroke="#2e8b57" cx="607.42" cy="-407" rx="94.09" ry="24.08"/>
<text text-anchor="middle" x="607.42" y="-410.4" font-family="DejaVu Sans" font-size="12.00">Cập nhật trạng thái</text>
<text text-anchor="middle" x="607.42" y="-397.4" font-family="DejaVu Sans" font-size="12.00">Đã lấy hàng</text>
</g>
<!-- BanGiaoNoiBo&#45;&gt;DaLayHang -->
<g id="edge22" class="edge">
<title>BanGiaoNoiBo&#45;&gt;DaLayHang</title>
<path fill="none" stroke="#555555" d="M387.78,-401C387.78,-401 509.16,-401 509.16,-401"/>
<polygon fill="#555555" stroke="#555555" points="509.16,-403.45 516.16,-401 509.16,-398.55 509.16,-403.45"/>
<text text-anchor="middle" x="456.23" y="-404" font-family="DejaVu Sans" font-size="10.00">include</text>
</g>
</g>
</svg>
