<?xml version="1.0" encoding="UTF-8" standalone="no"?>
<!DOCTYPE svg PUBLIC "-//W3C//DTD SVG 1.1//EN"
 "http://www.w3.org/Graphics/SVG/1.1/DTD/svg11.dtd">
<!-- Generated by graphviz version 2.42.4 (0)
 -->
<!-- Title: G Pages: 1 -->
<svg width="2030pt" height="666pt"
 viewBox="0.00 0.00 2029.85 666.40" xmlns="http://www.w3.org/2000/svg" xmlns:xlink="http://www.w3.org/1999/xlink">
<g id="graph0" class="graph" transform="scale(1 1) rotate(0) translate(25.2 641.2)">
<title>G</title>
<polygon fill="white" stroke="transparent" points="-25.2,25.2 -25.2,-641.2 2004.65,-641.2 2004.65,25.2 -25.2,25.2"/>
<text text-anchor="middle" x="989.73" y="-596" font-family="DejaVu Sans" font-size="20.00">Package 3 &#45; Phân tuyến &amp; Kế hoạch chuyến</text>
<g id="clust1" class="cluster">
<title>cluster_sys</title>
<path fill="white" stroke="#b8c4d0" stroke-dasharray="5,2" d="M185,-323C185,-323 1959.45,-323 1959.45,-323 1965.45,-323 1971.45,-329 1971.45,-335 1971.45,-335 1971.45,-565 1971.45,-565 1971.45,-571 1965.45,-577 1959.45,-577 1959.45,-577 185,-577 185,-577 179,-577 173,-571 173,-565 173,-565 173,-335 173,-335 173,-329 179,-323 185,-323"/>
<text text-anchor="middle" x="1072.23" y="-557" font-family="DejaVu Sans" font-size="20.00">Hệ thống Logistic Medcon</text>
</g>
<!-- actor -->
<g id="node1" class="node">
<title>actor</title>
<text text-anchor="middle" x="65" y="-14.9" font-family="DejaVu Sans" font-size="12.00">actor</text>
</g>
<!-- usecase -->
<g id="node2" class="node">
<title>usecase</title>
<ellipse fill="#f7faff" stroke="#3b6ea8" stroke-width="1.2" cx="65" cy="-86" rx="40.03" ry="18"/>
<text text-anchor="middle" x="65" y="-82.9" font-family="DejaVu Sans" font-size="12.00">usecase</text>
</g>
<!-- system -->
<g id="node3" class="node">
<title>system</title>
<path fill="none" stroke="#9aa7b3" stroke-width="1.2" d="M82.5,-172C82.5,-172 47.5,-172 47.5,-172 41.5,-172 35.5,-166 35.5,-160 35.5,-160 35.5,-148 35.5,-148 35.5,-142 41.5,-136 47.5,-136 47.5,-136 82.5,-136 82.5,-136 88.5,-136 94.5,-142 94.5,-148 94.5,-148 94.5,-160 94.5,-160 94.5,-166 88.5,-172 82.5,-172"/>
<text text-anchor="middle" x="65" y="-150.9" font-family="DejaVu Sans" font-size="12.00">system</text>
</g>
<!-- HeThong -->
<g id="node4" class="node">
<title>HeThong</title>
<polygon fill="none" stroke="black" points="112.5,-586 17.5,-586 17.5,-582 13.5,-582 13.5,-578 17.5,-578 17.5,-558 13.5,-558 13.5,-554 17.5,-554 17.5,-550 112.5,-550 112.5,-586"/>
<polyline fill="none" stroke="black" points="17.5,-582 21.5,-582 21.5,-578 17.5,-578 "/>
<polyline fill="none" stroke="black" points="17.5,-558 21.5,-558 21.5,-554 17.5,-554 "/>
<text text-anchor="middle" x="65" y="-571.4" font-family="DejaVu Sans" font-size="12.00">Hệ thống</text>
<text text-anchor="middle" x="65" y="-558.4" font-family="DejaVu Sans" font-size="12.00">gợi ý tự động</text>
</g>
<!-- TongHopDon -->
<g id="node7" class="node">
<title>TongHopDon</title>
<ellipse fill="#f7faff" stroke="#3b6ea8" cx="275.05" cy="-515" rx="70.01" ry="24.08"/>
<text text-anchor="middle" x="275.05" y="-518.4" font-family="DejaVu Sans" font-size="12.00">Tổng hợp đơn</text>
<text text-anchor="middle" x="275.05" y="-505.4" font-family="DejaVu Sans" font-size="12.00">đã lấy hàng</text>
</g>
<!-- HeThong&#45;&gt;TongHopDon -->
<g id="edge1" class="edge">
<title>HeThong&#45;&gt;TongHopDon</title>
<path fill="none" stroke="#555555" d="M65.45,-549.76C65.45,-534.43 65.45,-515 65.45,-515 65.45,-515 197.96,-515 197.96,-515"/>
<polygon fill="#555555" stroke="#555555" points="197.96,-517.45 204.96,-515 197.96,-512.55 197.96,-517.45"/>
</g>
<!-- GoiYKeHoach -->
<g id="node11" class="node">
<title>GoiYKeHoach</title>
<ellipse fill="#f7faff" stroke="#3b6ea8" cx="1526.49" cy="-515" rx="93.64" ry="18"/>
<text text-anchor="middle" x="1526.49" y="-511.9" font-family="DejaVu Sans" font-size="12.00">Gợi ý kế hoạch chuyến</text>
</g>
<!-- HeThong&#45;&gt;GoiYKeHoach -->
<g id="edge2" class="edge">
<title>HeThong&#45;&gt;GoiYKeHoach</title>
<path fill="none" stroke="#555555" d="M112.83,-568C364.87,-568 1527.45,-568 1527.45,-568 1527.45,-568 1527.45,-540.24 1527.45,-540.24"/>
<polygon fill="#555555" stroke="#555555" points="1529.9,-540.24 1527.45,-533.24 1525,-540.24 1529.9,-540.24"/>
</g>
<!-- DieuPhoi -->
<g id="node5" class="node">
<title>DieuPhoi</title>
<text text-anchor="start" x="50" y="-363.8" font-family="DejaVu Sans" font-size="24.00">👤</text>
<text text-anchor="start" x="23" y="-341.4" font-family="DejaVu Sans" font-size="12.00">Điều phối viên</text>
</g>
<!-- XemKeHoach -->
<g id="node13" class="node">
<title>XemKeHoach</title>
<ellipse fill="#f7faff" stroke="#3b6ea8" cx="275.05" cy="-361" rx="91.95" ry="18"/>
<text text-anchor="middle" x="275.05" y="-357.9" font-family="DejaVu Sans" font-size="12.00">Xem kế hoạch chuyến</text>
</g>
<!-- DieuPhoi&#45;&gt;XemKeHoach -->
<g id="edge3" class="edge">
<title>DieuPhoi&#45;&gt;XemKeHoach</title>
<path fill="none" stroke="#555555" d="M119.64,-367C119.64,-367 181.53,-367 181.53,-367"/>
<polygon fill="#555555" stroke="#555555" points="181.53,-369.45 188.53,-367 181.53,-364.55 181.53,-369.45"/>
</g>
<!-- ChinhSuaKeHoach -->
<g id="node14" class="node">
<title>ChinhSuaKeHoach</title>
<ellipse fill="#f7faff" stroke="#3b6ea8" cx="566.11" cy="-355" rx="111.03" ry="24.08"/>
<text text-anchor="middle" x="566.11" y="-358.4" font-family="DejaVu Sans" font-size="12.00">Chỉnh sửa kế hoạch</text>
<text text-anchor="middle" x="566.11" y="-345.4" font-family="DejaVu Sans" font-size="12.00">đơn / tuyến / xe dự kiến</text>
</g>
<!-- DieuPhoi&#45;&gt;ChinhSuaKeHoach -->
<g id="edge4" class="edge">
<title>DieuPhoi&#45;&gt;ChinhSuaKeHoach</title>
<path fill="none" stroke="#555555" d="M119.58,-336.98C119.58,-336.98 485.59,-336.98 485.59,-336.98"/>
<polygon fill="#555555" stroke="#555555" points="485.59,-339.43 492.59,-336.98 485.59,-334.53 485.59,-339.43"/>
</g>
<!-- DuyetKeHoach -->
<g id="node15" class="node">
<title>DuyetKeHoach</title>
<ellipse fill="#eef8f1" stroke="#2e8b57" cx="275.05" cy="-435" rx="94.09" ry="24.08"/>
<text text-anchor="middle" x="275.05" y="-438.4" font-family="DejaVu Sans" font-size="12.00">Duyệt kế hoạch</text>
<text text-anchor="middle" x="275.05" y="-425.4" font-family="DejaVu Sans" font-size="12.00">trạng thái Đã duyệt</text>
</g>
<!-- DieuPhoi&#45;&gt;DuyetKeHoach -->
<g id="edge5" class="edge">
<title>DieuPhoi&#45;&gt;DuyetKeHoach</title>
<path fill="none" stroke="#555555" d="M116.45,-391.53C116.45,-411.91 116.45,-435 116.45,-435 116.45,-435 173.96,-435 173.96,-435"/>
<polygon fill="#555555" stroke="#555555" points="173.96,-437.45 180.96,-435 173.96,-432.55 173.96,-437.45"/>
</g>
<!-- QuanLy -->
<g id="node6" class="node">
<title>QuanLy</title>
<text text-anchor="start" x="49.5" y="-237.8" font-family="DejaVu Sans" font-size="24.00">👤</text>
<text text-anchor="start" x="12" y="-215.4" font-family="DejaVu Sans" font-size="12.00">Quản lý vận hành</text>
</g>
<!-- QuanLy&#45;&gt;XemKeHoach -->
<g id="edge6" class="edge">
<title>QuanLy&#45;&gt;XemKeHoach</title>
<path fill="none" stroke="#555555" d="M127.45,-265.59C127.45,-301.14 127.45,-355 127.45,-355 127.45,-355 181.33,-355 181.33,-355"/>
<polygon fill="#555555" stroke="#555555" points="181.34,-357.45 188.33,-355 181.33,-352.55 181.34,-357.45"/>
</g>
<!-- KiemSoatSLA -->
<g id="node17" class="node">
<title>KiemSoatSLA</title>
<ellipse fill="#f7faff" stroke="#3b6ea8" cx="1834.76" cy="-395" rx="128.89" ry="24.08"/>
<text text-anchor="middle" x="1834.76" y="-398.4" font-family="DejaVu Sans" font-size="12.00">Kiểm soát SLA</text>
<text text-anchor="middle" x="1834.76" y="-385.4" font-family="DejaVu Sans" font-size="12.00">cut&#45;off / loại hàng / nhiệt độ</text>
</g>
<!-- QuanLy&#45;&gt;KiemSoatSLA -->
<g id="edge7" class="edge">
<title>QuanLy&#45;&gt;KiemSoatSLA</title>
<path fill="none" stroke="#555555" d="M123.45,-265.77C123.45,-309.74 123.45,-385.27 123.45,-385.27 123.45,-385.27 1709.79,-385.27 1709.79,-385.27"/>
<polygon fill="#555555" stroke="#555555" points="1709.79,-387.72 1716.79,-385.27 1709.79,-382.82 1709.79,-387.72"/>
</g>
<!-- GomTinh -->
<g id="node8" class="node">
<title>GomTinh</title>
<ellipse fill="#f7faff" stroke="#3b6ea8" cx="566.11" cy="-515" rx="96.33" ry="24.08"/>
<text text-anchor="middle" x="566.11" y="-518.4" font-family="DejaVu Sans" font-size="12.00">Gom hàng theo tỉnh</text>
<text text-anchor="middle" x="566.11" y="-505.4" font-family="DejaVu Sans" font-size="12.00">/ điểm đến</text>
</g>
<!-- TongHopDon&#45;&gt;GomTinh -->
<g id="edge8" class="edge">
<title>TongHopDon&#45;&gt;GomTinh</title>
<path fill="none" stroke="#555555" d="M345.13,-515C345.13,-515 462.68,-515 462.68,-515"/>
<polygon fill="#555555" stroke="#555555" points="462.68,-517.45 469.68,-515 462.68,-512.55 462.68,-517.45"/>
<text text-anchor="middle" x="412.09" y="-518" font-family="DejaVu Sans" font-size="10.00">include</text>
</g>
<!-- TinhTai -->
<g id="node9" class="node">
<title>TinhTai</title>
<ellipse fill="#f7faff" stroke="#3b6ea8" cx="896.06" cy="-515" rx="132.87" ry="24.08"/>
<text text-anchor="middle" x="896.06" y="-518.4" font-family="DejaVu Sans" font-size="12.00">Tính tải dự kiến</text>
<text text-anchor="middle" x="896.06" y="-505.4" font-family="DejaVu Sans" font-size="12.00">khối lượng / thể tích / số kiện</text>
</g>
<!-- GomTinh&#45;&gt;TinhTai -->
<g id="edge9" class="edge">
<title>GomTinh&#45;&gt;TinhTai</title>
<path fill="none" stroke="#555555" d="M662.43,-515C662.43,-515 755.83,-515 755.83,-515"/>
<polygon fill="#555555" stroke="#555555" points="755.83,-517.45 762.83,-515 755.83,-512.55 755.83,-517.45"/>
<text text-anchor="middle" x="720.12" y="-518" font-family="DejaVu Sans" font-size="10.00">include</text>
</g>
<!-- XacDinhTuyen -->
<g id="node10" class="node">
<title>XacDinhTuyen</title>
<ellipse fill="#f7faff" stroke="#3b6ea8" cx="1230.96" cy="-515" rx="115.93" ry="24.08"/>
<text text-anchor="middle" x="1230.96" y="-518.4" font-family="DejaVu Sans" font-size="12.00">Xác định tuyến</text>
<text text-anchor="middle" x="1230.96" y="-505.4" font-family="DejaVu Sans" font-size="12.00">ghép tỉnh và thứ tự điểm</text>
</g>
<!-- TinhTai&#45;&gt;XacDinhTuyen -->
<g id="edge10" class="edge">
<title>TinhTai&#45;&gt;XacDinhTuyen</title>
<path fill="none" stroke="#555555" d="M1029.38,-515C1029.38,-515 1107.86,-515 1107.86,-515"/>
<polygon fill="#555555" stroke="#555555" points="1107.86,-517.45 1114.86,-515 1107.86,-512.55 1107.86,-517.45"/>
<text text-anchor="middle" x="1071.99" y="-518" font-family="DejaVu Sans" font-size="10.00">include</text>
</g>
<!-- XacDinhTuyen&#45;&gt;GoiYKeHoach -->
<g id="edge11" class="edge">
<title>XacDinhTuyen&#45;&gt;GoiYKeHoach</title>
<path fill="none" stroke="#555555" d="M1347.34,-515C1347.34,-515 1425.56,-515 1425.56,-515"/>
<polygon fill="#555555" stroke="#555555" points="1425.56,-517.45 1432.56,-515 1425.56,-512.55 1425.56,-517.45"/>
<text text-anchor="middle" x="1389.93" y="-518" font-family="DejaVu Sans" font-size="10.00">include</text>
</g>
<!-- ChoDuyet -->
<g id="node12" class="node">
<title>ChoDuyet</title>
<ellipse fill="#fff9f0" stroke="#c47a00" cx="1834.76" cy="-515" rx="98.99" ry="24.08"/>
<text text-anchor="middle" x="1834.76" y="-518.4" font-family="DejaVu Sans" font-size="12.00">Tạo kế hoạch</text>
<text text-anchor="middle" x="1834.76" y="-505.4" font-family="DejaVu Sans" font-size="12.00">trạng thái Chờ duyệt</text>
</g>
<!-- GoiYKeHoach&#45;&gt;ChoDuyet -->
<g id="edge13" class="edge">
<title>GoiYKeHoach&#45;&gt;ChoDuyet</title>
<path fill="none" stroke="#555555" d="M1614.83,-521C1614.83,-521 1731.85,-521 1731.85,-521"/>
<polygon fill="#555555" stroke="#555555" points="1731.85,-523.45 1738.85,-521 1731.85,-518.55 1731.85,-523.45"/>
<text text-anchor="middle" x="1663.06" y="-518" font-family="DejaVu Sans" font-size="10.00">include</text>
</g>
<!-- GoiYKeHoach&#45;&gt;KiemSoatSLA -->
<g id="edge12" class="edge">
<title>GoiYKeHoach&#45;&gt;KiemSoatSLA</title>
<path fill="none" stroke="#555555" d="M1614.85,-509C1666.43,-509 1721.45,-509 1721.45,-509 1721.45,-509 1721.45,-413.77 1721.45,-413.77"/>
<polygon fill="#555555" stroke="#555555" points="1723.9,-413.77 1721.45,-406.77 1719,-413.77 1723.9,-413.77"/>
<text text-anchor="middle" x="1663.06" y="-414" font-family="DejaVu Sans" font-size="10.00">include</text>
</g>
<!-- XemKeHoach&#45;&gt;ChinhSuaKeHoach -->
<g id="edge14" class="edge">
<title>XemKeHoach&#45;&gt;ChinhSuaKeHoach</title>
<path fill="none" stroke="#555555" d="M367.14,-361C367.14,-361 451.35,-361 451.35,-361"/>
<polygon fill="#555555" stroke="#555555" points="451.35,-363.45 458.35,-361 451.35,-358.55 451.35,-363.45"/>
<text text-anchor="middle" x="412.09" y="-366" font-family="DejaVu Sans" font-size="10.00">extend</text>
</g>
<!-- TaoChuyenThat -->
<g id="node16" class="node">
<title>TaoChuyenThat</title>
<ellipse fill="#eef8f1" stroke="#2e8b57" cx="566.11" cy="-435" rx="74.91" ry="24.08"/>
<text text-anchor="middle" x="566.11" y="-438.4" font-family="DejaVu Sans" font-size="12.00">Chuyển thành</text>
<text text-anchor="middle" x="566.11" y="-425.4" font-family="DejaVu Sans" font-size="12.00">chuyến xe thật</text>
</g>
<!-- DuyetKeHoach&#45;&gt;TaoChuyenThat -->
<g id="edge15" class="edge">
<title>DuyetKeHoach&#45;&gt;TaoChuyenThat</title>
<path fill="none" stroke="#555555" d="M369.14,-435C369.14,-435 483.75,-435 483.75,-435"/>
<polygon fill="#555555" stroke="#555555" points="483.75,-437.45 490.75,-435 483.75,-432.55 483.75,-437.45"/>
<text text-anchor="middle" x="412.09" y="-438" font-family="DejaVu Sans" font-size="10.00">include</text>
</g>
</g>
</svg>
