<?xml version="1.0" encoding="UTF-8" standalone="no"?>
<!DOCTYPE svg PUBLIC "-//W3C//DTD SVG 1.1//EN"
 "http://www.w3.org/Graphics/SVG/1.1/DTD/svg11.dtd">
<!-- Generated by graphviz version 2.42.4 (0)
 -->
<!-- Title: G Pages: 1 -->
<svg width="1290pt" height="749pt"
 viewBox="0.00 0.00 1290.02 748.90" xmlns="http://www.w3.org/2000/svg" xmlns:xlink="http://www.w3.org/1999/xlink">
<g id="graph0" class="graph" transform="scale(1 1) rotate(0) translate(25.2 723.7)">
<title>G</title>
<polygon fill="white" stroke="transparent" points="-25.2,25.2 -25.2,-723.7 1264.82,-723.7 1264.82,25.2 -25.2,25.2"/>
<text text-anchor="middle" x="619.81" y="-678.5" font-family="DejaVu Sans" font-size="20.00">Package 4 &#45; Chuyến xe thực tế &amp; Vận chuyển</text>
<g id="clust1" class="cluster">
<title>cluster_sys</title>
<path fill="white" stroke="#b8c4d0" stroke-dasharray="5,2" d="M166,-185C166,-185 1219.62,-185 1219.62,-185 1225.62,-185 1231.62,-191 1231.62,-197 1231.62,-197 1231.62,-587 1231.62,-587 1231.62,-593 1225.62,-599 1219.62,-599 1219.62,-599 166,-599 166,-599 160,-599 154,-593 154,-587 154,-587 154,-197 154,-197 154,-191 160,-185 166,-185"/>
<text text-anchor="middle" x="692.81" y="-579" font-family="DejaVu Sans" font-size="20.00">Hệ thống Logistic Medcon</text>
</g>
<!-- actor -->
<g id="node1" class="node">
<title>actor</title>
<text text-anchor="middle" x="55.5" y="-14.9" font-family="DejaVu Sans" font-size="12.00">actor</text>
</g>
<!-- usecase -->
<g id="node2" class="node">
<title>usecase</title>
<ellipse fill="#f7faff" stroke="#3b6ea8" stroke-width="1.2" cx="55.5" cy="-86" rx="40.03" ry="18"/>
<text text-anchor="middle" x="55.5" y="-82.9" font-family="DejaVu Sans" font-size="12.00">usecase</text>
</g>
<!-- system -->
<g id="node3" class="node">
<title>system</title>
<path fill="none" stroke="#9aa7b3" stroke-width="1.2" d="M73,-172C73,-172 38,-172 38,-172 32,-172 26,-166 26,-160 26,-160 26,-148 26,-148 26,-142 32,-136 38,-136 38,-136 73,-136 73,-136 79,-136 85,-142 85,-148 85,-148 85,-160 85,-160 85,-166 79,-172 73,-172"/>
<text text-anchor="middle" x="55.5" y="-150.9" font-family="DejaVu Sans" font-size="12.00">system</text>
</g>
<!-- DieuPhoi -->
<g id="node4" class="node">
<title>DieuPhoi</title>
<text text-anchor="start" x="40.5" y="-237.8" font-family="DejaVu Sans" font-size="24.00">👤</text>
<text text-anchor="start" x="13.5" y="-215.4" font-family="DejaVu Sans" font-size="12.00">Điều phối viên</text>
</g>
<!-- LapChuyen -->
<g id="node9" class="node">
<title>LapChuyen</title>
<ellipse fill="#f7faff" stroke="#3b6ea8" cx="286.45" cy="-235" rx="101.23" ry="24.08"/>
<text text-anchor="middle" x="286.45" y="-238.4" font-family="DejaVu Sans" font-size="12.00">Lập chuyến xe thật</text>
<text text-anchor="middle" x="286.45" y="-225.4" font-family="DejaVu Sans" font-size="12.00">từ kế hoạch đã duyệt</text>
</g>
<!-- DieuPhoi&#45;&gt;LapChuyen -->
<g id="edge1" class="edge">
<title>DieuPhoi&#45;&gt;LapChuyen</title>
<path fill="none" stroke="#555555" d="M110.23,-235C110.23,-235 178.05,-235 178.05,-235"/>
<polygon fill="#555555" stroke="#555555" points="178.05,-237.45 185.05,-235 178.05,-232.55 178.05,-237.45"/>
</g>
<!-- GanXeTaiXe -->
<g id="node10" class="node">
<title>GanXeTaiXe</title>
<ellipse fill="#f7faff" stroke="#3b6ea8" cx="607.21" cy="-217" rx="67.35" ry="24.08"/>
<text text-anchor="middle" x="607.21" y="-220.4" font-family="DejaVu Sans" font-size="12.00">Gán xe thật</text>
<text text-anchor="middle" x="607.21" y="-207.4" font-family="DejaVu Sans" font-size="12.00">và tài xế thật</text>
</g>
<!-- DieuPhoi&#45;&gt;GanXeTaiXe -->
<g id="edge2" class="edge">
<title>DieuPhoi&#45;&gt;GanXeTaiXe</title>
<path fill="none" stroke="#555555" d="M103.62,-204.4C103.62,-201 103.62,-198.73 103.62,-198.73 103.62,-198.73 556.4,-198.73 556.4,-198.73"/>
<polygon fill="#555555" stroke="#555555" points="556.4,-201.18 563.4,-198.73 556.4,-196.28 556.4,-201.18"/>
</g>
<!-- HuyChuyen -->
<g id="node19" class="node">
<title>HuyChuyen</title>
<ellipse fill="#fff3f0" stroke="#c44d32" cx="286.45" cy="-321" rx="61.54" ry="24.08"/>
<text text-anchor="middle" x="286.45" y="-324.4" font-family="DejaVu Sans" font-size="12.00">Hủy chuyến</text>
<text text-anchor="middle" x="286.45" y="-311.4" font-family="DejaVu Sans" font-size="12.00">và ghi lý do</text>
</g>
<!-- DieuPhoi&#45;&gt;HuyChuyen -->
<g id="edge3" class="edge">
<title>DieuPhoi&#45;&gt;HuyChuyen</title>
<path fill="none" stroke="#555555" d="M55.62,-265.56C55.62,-290.28 55.62,-321 55.62,-321 55.62,-321 217.89,-321 217.89,-321"/>
<polygon fill="#555555" stroke="#555555" points="217.89,-323.45 224.89,-321 217.89,-318.55 217.89,-323.45"/>
</g>
<!-- TaiXe -->
<g id="node5" class="node">
<title>TaiXe</title>
<text text-anchor="start" x="40.5" y="-560.8" font-family="DejaVu Sans" font-size="24.00">👤</text>
<text text-anchor="start" x="12.5" y="-538.4" font-family="DejaVu Sans" font-size="12.00">Tài xế / phụ xe</text>
</g>
<!-- XeNhanHang -->
<g id="node12" class="node">
<title>XeNhanHang</title>
<ellipse fill="#f7faff" stroke="#3b6ea8" cx="286.45" cy="-485" rx="70.01" ry="24.08"/>
<text text-anchor="middle" x="286.45" y="-488.4" font-family="DejaVu Sans" font-size="12.00">Cập nhật</text>
<text text-anchor="middle" x="286.45" y="-475.4" font-family="DejaVu Sans" font-size="12.00">Xe nhận hàng</text>
</g>
<!-- TaiXe&#45;&gt;XeNhanHang -->
<g id="edge4" class="edge">
<title>TaiXe&#45;&gt;XeNhanHang</title>
<path fill="none" stroke="#555555" d="M83.62,-527.46C83.62,-507.46 83.62,-485 83.62,-485 83.62,-485 209.36,-485 209.36,-485"/>
<polygon fill="#555555" stroke="#555555" points="209.36,-487.45 216.36,-485 209.36,-482.55 209.36,-487.45"/>
</g>
<!-- ChoXuatBen -->
<g id="node13" class="node">
<title>ChoXuatBen</title>
<ellipse fill="#f7faff" stroke="#3b6ea8" cx="607.21" cy="-537" rx="79.81" ry="24.08"/>
<text text-anchor="middle" x="607.21" y="-540.4" font-family="DejaVu Sans" font-size="12.00">Cập nhật</text>
<text text-anchor="middle" x="607.21" y="-527.4" font-family="DejaVu Sans" font-size="12.00">Xe chờ xuất bến</text>
</g>
<!-- TaiXe&#45;&gt;ChoXuatBen -->
<g id="edge5" class="edge">
<title>TaiXe&#45;&gt;ChoXuatBen</title>
<path fill="none" stroke="#555555" d="M111.18,-549.86C111.18,-549.86 532.5,-549.86 532.5,-549.86"/>
<polygon fill="#555555" stroke="#555555" points="532.51,-552.31 539.5,-549.86 532.5,-547.41 532.51,-552.31"/>
</g>
<!-- DangChay -->
<g id="node14" class="node">
<title>DangChay</title>
<ellipse fill="#eef8f1" stroke="#2e8b57" cx="884.01" cy="-537" rx="56.64" ry="24.08"/>
<text text-anchor="middle" x="884.01" y="-540.4" font-family="DejaVu Sans" font-size="12.00">Cập nhật</text>
<text text-anchor="middle" x="884.01" y="-527.4" font-family="DejaVu Sans" font-size="12.00">Đang chạy</text>
</g>
<!-- TaiXe&#45;&gt;DangChay -->
<g id="edge6" class="edge">
<title>TaiXe&#45;&gt;DangChay</title>
<path fill="none" stroke="#555555" d="M111.19,-574.77C297.09,-574.77 884.62,-574.77 884.62,-574.77 884.62,-574.77 884.62,-568.13 884.62,-568.13"/>
<polygon fill="#555555" stroke="#555555" points="887.07,-568.13 884.62,-561.13 882.17,-568.13 887.07,-568.13"/>
</g>
<!-- DenTrungChuyen -->
<g id="node16" class="node">
<title>DenTrungChuyen</title>
<ellipse fill="#f7faff" stroke="#3b6ea8" cx="286.45" cy="-404" rx="124.4" ry="24.08"/>
<text text-anchor="middle" x="286.45" y="-407.4" font-family="DejaVu Sans" font-size="12.00">Cập nhật</text>
<text text-anchor="middle" x="286.45" y="-394.4" font-family="DejaVu Sans" font-size="12.00">Đã đến điểm trung chuyển</text>
</g>
<!-- TaiXe&#45;&gt;DenTrungChuyen -->
<g id="edge7" class="edge">
<title>TaiXe&#45;&gt;DenTrungChuyen</title>
<path fill="none" stroke="#555555" d="M111.21,-538.68C148.06,-538.68 189.62,-538.68 189.62,-538.68 189.62,-538.68 189.62,-426.19 189.62,-426.19"/>
<polygon fill="#555555" stroke="#555555" points="192.07,-426.19 189.62,-419.19 187.17,-426.19 192.07,-426.19"/>
</g>
<!-- BanGiao -->
<g id="node17" class="node">
<title>BanGiao</title>
<ellipse fill="#f7faff" stroke="#3b6ea8" cx="607.21" cy="-377" rx="72.66" ry="24.08"/>
<text text-anchor="middle" x="607.21" y="-380.4" font-family="DejaVu Sans" font-size="12.00">Bàn giao hàng</text>
<text text-anchor="middle" x="607.21" y="-367.4" font-family="DejaVu Sans" font-size="12.00">tại điểm đến</text>
</g>
<!-- TaiXe&#45;&gt;BanGiao -->
<g id="edge8" class="edge">
<title>TaiXe&#45;&gt;BanGiao</title>
<path fill="none" stroke="#555555" d="M28.62,-527.11C28.62,-473.99 28.62,-370.96 28.62,-370.96 28.62,-370.96 529.55,-370.96 529.55,-370.96"/>
<polygon fill="#555555" stroke="#555555" points="529.55,-373.41 536.55,-370.96 529.55,-368.51 529.55,-373.41"/>
</g>
<!-- NhaXe -->
<g id="node6" class="node">
<title>NhaXe</title>
<text text-anchor="start" x="270.95" y="-55.8" font-family="DejaVu Sans" font-size="24.00">👤</text>
<text text-anchor="start" x="231.45" y="-33.4" font-family="DejaVu Sans" font-size="12.00">Nhà xe thuê ngoài</text>
</g>
<!-- NhaXe&#45;&gt;GanXeTaiXe -->
<g id="edge9" class="edge">
<title>NhaXe&#45;&gt;GanXeTaiXe</title>
<path fill="none" stroke="#555555" d="M353.78,-53C447.95,-53 607.62,-53 607.62,-53 607.62,-53 607.62,-185.8 607.62,-185.8"/>
<polygon fill="#555555" stroke="#555555" points="605.17,-185.8 607.62,-192.8 610.07,-185.8 605.17,-185.8"/>
</g>
<!-- DiemTrungChuyen -->
<g id="node7" class="node">
<title>DiemTrungChuyen</title>
<text text-anchor="start" x="271.45" y="-148.8" font-family="DejaVu Sans" font-size="24.00">👤</text>
<text text-anchor="start" x="229.45" y="-126.4" font-family="DejaVu Sans" font-size="12.00">Điểm trung chuyển</text>
</g>
<!-- DiemTrungChuyen&#45;&gt;BanGiao -->
<g id="edge10" class="edge">
<title>DiemTrungChuyen&#45;&gt;BanGiao</title>
<path fill="none" stroke="#555555" d="M356.31,-146C402.51,-146 454.62,-146 454.62,-146 454.62,-146 454.62,-361.96 454.62,-361.96 454.62,-361.96 543.39,-361.96 543.39,-361.96"/>
<polygon fill="#555555" stroke="#555555" points="543.39,-364.41 550.39,-361.96 543.39,-359.51 543.39,-364.41"/>
</g>
<!-- QuanLy -->
<g id="node8" class="node">
<title>QuanLy</title>
<text text-anchor="start" x="270.95" y="-640.8" font-family="DejaVu Sans" font-size="24.00">👤</text>
<text text-anchor="start" x="233.45" y="-618.4" font-family="DejaVu Sans" font-size="12.00">Quản lý vận hành</text>
</g>
<!-- TheoDoiTai -->
<g id="node20" class="node">
<title>TheoDoiTai</title>
<ellipse fill="#f7faff" stroke="#3b6ea8" cx="607.21" cy="-457" rx="110.12" ry="24.08"/>
<text text-anchor="middle" x="607.21" y="-460.4" font-family="DejaVu Sans" font-size="12.00">Theo dõi mức tải</text>
<text text-anchor="middle" x="607.21" y="-447.4" font-family="DejaVu Sans" font-size="12.00">trễ giờ / lịch sử thay đổi</text>
</g>
<!-- QuanLy&#45;&gt;TheoDoiTai -->
<g id="edge11" class="edge">
<title>QuanLy&#45;&gt;TheoDoiTai</title>
<path fill="none" stroke="#555555" d="M351.56,-638C418.38,-638 512.62,-638 512.62,-638 512.62,-638 512.62,-476.44 512.62,-476.44"/>
<polygon fill="#555555" stroke="#555555" points="515.07,-476.44 512.62,-469.44 510.17,-476.44 515.07,-476.44"/>
</g>
<!-- LapChuyen&#45;&gt;GanXeTaiXe -->
<g id="edge12" class="edge">
<title>LapChuyen&#45;&gt;GanXeTaiXe</title>
<path fill="none" stroke="#555555" d="M380.52,-226C380.52,-226 537.6,-226 537.6,-226"/>
<polygon fill="#555555" stroke="#555555" points="537.6,-228.45 544.6,-226 537.6,-223.55 537.6,-228.45"/>
<text text-anchor="middle" x="453.9" y="-233" font-family="DejaVu Sans" font-size="10.00">include</text>
</g>
<!-- QuanLyDanhSachDon -->
<g id="node11" class="node">
<title>QuanLyDanhSachDon</title>
<ellipse fill="#f7faff" stroke="#3b6ea8" cx="607.21" cy="-297" rx="108.79" ry="24.08"/>
<text text-anchor="middle" x="607.21" y="-300.4" font-family="DejaVu Sans" font-size="12.00">Quản lý danh sách đơn</text>
<text text-anchor="middle" x="607.21" y="-287.4" font-family="DejaVu Sans" font-size="12.00">thuộc chuyến</text>
</g>
<!-- LapChuyen&#45;&gt;QuanLyDanhSachDon -->
<g id="edge13" class="edge">
<title>LapChuyen&#45;&gt;QuanLyDanhSachDon</title>
<path fill="none" stroke="#555555" d="M365.39,-250.04C433.03,-250.04 519.62,-250.04 519.62,-250.04 519.62,-250.04 519.62,-275.66 519.62,-275.66"/>
<polygon fill="#555555" stroke="#555555" points="517.17,-275.66 519.62,-282.66 522.07,-275.66 517.17,-275.66"/>
<text text-anchor="middle" x="453.9" y="-285" font-family="DejaVu Sans" font-size="10.00">include</text>
</g>
<!-- XeNhanHang&#45;&gt;ChoXuatBen -->
<g id="edge14" class="edge">
<title>XeNhanHang&#45;&gt;ChoXuatBen</title>
<path fill="none" stroke="#555555" d="M286.62,-509.08C286.62,-515.28 286.62,-520.23 286.62,-520.23 286.62,-520.23 542.89,-520.23 542.89,-520.23"/>
<polygon fill="#555555" stroke="#555555" points="542.89,-522.68 549.89,-520.23 542.89,-517.78 542.89,-522.68"/>
</g>
<!-- ChoXuatBen&#45;&gt;DangChay -->
<g id="edge15" class="edge">
<title>ChoXuatBen&#45;&gt;DangChay</title>
<path fill="none" stroke="#555555" d="M687.27,-537C687.27,-537 820.4,-537 820.4,-537"/>
<polygon fill="#555555" stroke="#555555" points="820.4,-539.45 827.4,-537 820.4,-534.55 820.4,-539.45"/>
</g>
<!-- DonDangVanChuyen -->
<g id="node15" class="node">
<title>DonDangVanChuyen</title>
<ellipse fill="#eef8f1" stroke="#2e8b57" cx="1138.06" cy="-537" rx="85.62" ry="24.08"/>
<text text-anchor="middle" x="1138.06" y="-540.4" font-family="DejaVu Sans" font-size="12.00">Cập nhật đơn</text>
<text text-anchor="middle" x="1138.06" y="-527.4" font-family="DejaVu Sans" font-size="12.00">Đang vận chuyển</text>
</g>
<!-- DangChay&#45;&gt;DonDangVanChuyen -->
<g id="edge16" class="edge">
<title>DangChay&#45;&gt;DonDangVanChuyen</title>
<path fill="none" stroke="#555555" d="M940.7,-537C940.7,-537 1045.07,-537 1045.07,-537"/>
<polygon fill="#555555" stroke="#555555" points="1045.07,-539.45 1052.07,-537 1045.07,-534.55 1045.07,-539.45"/>
<text text-anchor="middle" x="1009.5" y="-540" font-family="DejaVu Sans" font-size="10.00">include</text>
</g>
<!-- DenTrungChuyen&#45;&gt;BanGiao -->
<g id="edge17" class="edge">
<title>DenTrungChuyen&#45;&gt;BanGiao</title>
<path fill="none" stroke="#555555" d="M389.71,-390.5C389.71,-390.5 539.7,-390.5 539.7,-390.5"/>
<polygon fill="#555555" stroke="#555555" points="539.7,-392.95 546.7,-390.5 539.7,-388.05 539.7,-392.95"/>
<text text-anchor="middle" x="453.9" y="-384" font-family="DejaVu Sans" font-size="10.00">include</text>
</g>
<!-- HoanThanh -->
<g id="node18" class="node">
<title>HoanThanh</title>
<ellipse fill="#eef8f1" stroke="#2e8b57" cx="884.01" cy="-377" rx="82.48" ry="18"/>
<text text-anchor="middle" x="884.01" y="-373.9" font-family="DejaVu Sans" font-size="12.00">Hoàn thành chuyến</text>
</g>
<!-- BanGiao&#45;&gt;HoanThanh -->
<g id="edge18" class="edge">
<title>BanGiao&#45;&gt;HoanThanh</title>
<path fill="none" stroke="#555555" d="M680.3,-377C680.3,-377 794.21,-377 794.21,-377"/>
<polygon fill="#555555" stroke="#555555" points="794.21,-379.45 801.21,-377 794.21,-374.55 794.21,-379.45"/>
<text text-anchor="middle" x="759.52" y="-380" font-family="DejaVu Sans" font-size="10.00">extend</text>
</g>
<!-- HuyChuyen&#45;&gt;TheoDoiTai -->
<g id="edge19" class="edge">
<title>HuyChuyen&#45;&gt;TheoDoiTai</title>
<path fill="none" stroke="#555555" d="M339.83,-333.04C407.83,-333.04 516.62,-333.04 516.62,-333.04 516.62,-333.04 516.62,-436.26 516.62,-436.26"/>
<polygon fill="#555555" stroke="#555555" points="514.17,-436.26 516.62,-443.26 519.07,-436.26 514.17,-436.26"/>
<text text-anchor="middle" x="453.9" y="-335" font-family="DejaVu Sans" font-size="10.00">include</text>
</g>
</g>
</svg>
