<?xml version="1.0" encoding="UTF-8" standalone="no"?>
<!DOCTYPE svg PUBLIC "-//W3C//DTD SVG 1.1//EN"
 "http://www.w3.org/Graphics/SVG/1.1/DTD/svg11.dtd">
<!-- Generated by graphviz version 2.42.4 (0)
 -->
<!-- Title: G Pages: 1 -->
<svg width="1964pt" height="643pt"
 viewBox="0.00 0.00 1964.14 643.40" xmlns="http://www.w3.org/2000/svg" xmlns:xlink="http://www.w3.org/1999/xlink">
<g id="graph0" class="graph" transform="scale(1 1) rotate(0) translate(25.2 618.2)">
<title>G</title>
<polygon fill="white" stroke="transparent" points="-25.2,25.2 -25.2,-618.2 1938.94,-618.2 1938.94,25.2 -25.2,25.2"/>
<text text-anchor="middle" x="956.87" y="-573" font-family="DejaVu Sans" font-size="20.00">Package 5 &#45; Giao hàng cuối, giao một phần &amp; hoàn hàng</text>
<g id="clust1" class="cluster">
<title>cluster_sys</title>
<path fill="white" stroke="#b8c4d0" stroke-dasharray="5,2" d="M177,-124.5C177,-124.5 1893.74,-124.5 1893.74,-124.5 1899.74,-124.5 1905.74,-130.5 1905.74,-136.5 1905.74,-136.5 1905.74,-441.5 1905.74,-441.5 1905.74,-447.5 1899.74,-453.5 1893.74,-453.5 1893.74,-453.5 177,-453.5 177,-453.5 171,-453.5 165,-447.5 165,-441.5 165,-441.5 165,-136.5 165,-136.5 165,-130.5 171,-124.5 177,-124.5"/>
<text text-anchor="middle" x="1035.37" y="-433.5" font-family="DejaVu Sans" font-size="20.00">Hệ thống Logistic Medcon</text>
</g>
<!-- actor -->
<g id="node1" class="node">
<title>actor</title>
<text text-anchor="middle" x="61" y="-82.4" font-family="DejaVu Sans" font-size="12.00">actor</text>
</g>
<!-- usecase -->
<g id="node2" class="node">
<title>usecase</title>
<ellipse fill="#f7faff" stroke="#3b6ea8" stroke-width="1.2" cx="61" cy="-153.5" rx="40.03" ry="18"/>
<text text-anchor="middle" x="61" y="-150.4" font-family="DejaVu Sans" font-size="12.00">usecase</text>
</g>
<!-- system -->
<g id="node3" class="node">
<title>system</title>
<path fill="none" stroke="#9aa7b3" stroke-width="1.2" d="M78.5,-239.5C78.5,-239.5 43.5,-239.5 43.5,-239.5 37.5,-239.5 31.5,-233.5 31.5,-227.5 31.5,-227.5 31.5,-215.5 31.5,-215.5 31.5,-209.5 37.5,-203.5 43.5,-203.5 43.5,-203.5 78.5,-203.5 78.5,-203.5 84.5,-203.5 90.5,-209.5 90.5,-215.5 90.5,-215.5 90.5,-227.5 90.5,-227.5 90.5,-233.5 84.5,-239.5 78.5,-239.5"/>
<text text-anchor="middle" x="61" y="-218.4" font-family="DejaVu Sans" font-size="12.00">system</text>
</g>
<!-- TaiXe -->
<g id="node4" class="node">
<title>TaiXe</title>
<text text-anchor="start" x="45.5" y="-305.3" font-family="DejaVu Sans" font-size="24.00">👤</text>
<text text-anchor="start" x="12" y="-282.9" font-family="DejaVu Sans" font-size="12.00">Tài xế giao hàng</text>
</g>
<!-- GiaoHang -->
<g id="node9" class="node">
<title>GiaoHang</title>
<ellipse fill="#f7faff" stroke="#3b6ea8" cx="257.95" cy="-255.5" rx="84.9" ry="18"/>
<text text-anchor="middle" x="257.95" y="-252.4" font-family="DejaVu Sans" font-size="12.00">Thực hiện giao hàng</text>
</g>
<!-- TaiXe&#45;&gt;GiaoHang -->
<g id="edge1" class="edge">
<title>TaiXe&#45;&gt;GiaoHang</title>
<path fill="none" stroke="#555555" d="M115.74,-271.84C115.74,-263.03 115.74,-255.75 115.74,-255.75 115.74,-255.75 165.77,-255.75 165.77,-255.75"/>
<polygon fill="#555555" stroke="#555555" points="165.77,-258.2 172.77,-255.75 165.77,-253.3 165.77,-258.2"/>
</g>
<!-- KiemDemGiao -->
<g id="node10" class="node">
<title>KiemDemGiao</title>
<ellipse fill="#f7faff" stroke="#3b6ea8" cx="507.39" cy="-261.5" rx="78.48" ry="24.08"/>
<text text-anchor="middle" x="507.39" y="-264.9" font-family="DejaVu Sans" font-size="12.00">Kiểm đếm hàng</text>
<text text-anchor="middle" x="507.39" y="-251.9" font-family="DejaVu Sans" font-size="12.00">khi giao</text>
</g>
<!-- TaiXe&#45;&gt;KiemDemGiao -->
<g id="edge2" class="edge">
<title>TaiXe&#45;&gt;KiemDemGiao</title>
<path fill="none" stroke="#555555" d="M122.13,-279.52C122.13,-279.52 448.31,-279.52 448.31,-279.52"/>
<polygon fill="#555555" stroke="#555555" points="448.31,-281.97 455.31,-279.52 448.31,-277.07 448.31,-281.97"/>
</g>
<!-- KyBienBan -->
<g id="node11" class="node">
<title>KyBienBan</title>
<ellipse fill="#f7faff" stroke="#3b6ea8" cx="738.35" cy="-220.5" rx="66.44" ry="24.08"/>
<text text-anchor="middle" x="738.35" y="-223.9" font-family="DejaVu Sans" font-size="12.00">Ký biên bản</text>
<text text-anchor="middle" x="738.35" y="-210.9" font-family="DejaVu Sans" font-size="12.00">giấy / điện tử</text>
</g>
<!-- TaiXe&#45;&gt;KyBienBan -->
<g id="edge3" class="edge">
<title>TaiXe&#45;&gt;KyBienBan</title>
<path fill="none" stroke="#555555" d="M108.74,-271.96C108.74,-248.64 108.74,-220.48 108.74,-220.48 108.74,-220.48 664.86,-220.48 664.86,-220.48"/>
<polygon fill="#555555" stroke="#555555" points="664.86,-222.93 671.86,-220.48 664.86,-218.03 664.86,-222.93"/>
</g>
<!-- LuuBangChung -->
<g id="node12" class="node">
<title>LuuBangChung</title>
<ellipse fill="#f7faff" stroke="#3b6ea8" cx="972.13" cy="-309.5" rx="81.13" ry="24.08"/>
<text text-anchor="middle" x="972.13" y="-312.9" font-family="DejaVu Sans" font-size="12.00">Lưu ảnh, chữ ký,</text>
<text text-anchor="middle" x="972.13" y="-299.9" font-family="DejaVu Sans" font-size="12.00">thời gian, vị trí</text>
</g>
<!-- TaiXe&#45;&gt;LuuBangChung -->
<g id="edge4" class="edge">
<title>TaiXe&#45;&gt;LuuBangChung</title>
<path fill="none" stroke="#555555" d="M122.2,-317.18C122.2,-317.18 887.83,-317.18 887.83,-317.18"/>
<polygon fill="#555555" stroke="#555555" points="887.83,-319.63 894.83,-317.18 887.83,-314.73 887.83,-319.63"/>
</g>
<!-- KhachNhan -->
<g id="node5" class="node">
<title>KhachNhan</title>
<text text-anchor="start" x="492.39" y="-88.3" font-family="DejaVu Sans" font-size="24.00">👤</text>
<text text-anchor="start" x="455.39" y="-65.9" font-family="DejaVu Sans" font-size="12.00">Khách nhận hàng</text>
</g>
<!-- KhachNhan&#45;&gt;KyBienBan -->
<g id="edge5" class="edge">
<title>KhachNhan&#45;&gt;KyBienBan</title>
<path fill="none" stroke="#555555" d="M507.74,-116.18C507.74,-150.09 507.74,-199.98 507.74,-199.98 507.74,-199.98 696.57,-199.98 696.57,-199.98"/>
<polygon fill="#555555" stroke="#555555" points="696.57,-202.43 703.57,-199.98 696.57,-197.53 696.57,-202.43"/>
</g>
<!-- ThuCOD -->
<g id="node16" class="node">
<title>ThuCOD</title>
<ellipse fill="#fff9f0" stroke="#c47a00" cx="1533.15" cy="-382.5" rx="70.35" ry="18"/>
<text text-anchor="middle" x="1533.15" y="-379.4" font-family="DejaVu Sans" font-size="12.00">Thu COD nếu có</text>
</g>
<!-- KhachNhan&#45;&gt;ThuCOD -->
<g id="edge6" class="edge">
<title>KhachNhan&#45;&gt;ThuCOD</title>
<path fill="none" stroke="#555555" d="M572.23,-88.5C773.59,-88.5 1374.74,-88.5 1374.74,-88.5 1374.74,-88.5 1374.74,-373.27 1374.74,-373.27 1374.74,-373.27 1465.81,-373.27 1465.81,-373.27"/>
<polygon fill="#555555" stroke="#555555" points="1465.81,-375.72 1472.81,-373.27 1465.81,-370.82 1465.81,-375.72"/>
</g>
<!-- NhaCungCap -->
<g id="node6" class="node">
<title>NhaCungCap</title>
<text text-anchor="start" x="1518.15" y="-495.3" font-family="DejaVu Sans" font-size="24.00">👤</text>
<text text-anchor="start" x="1455.15" y="-472.9" font-family="DejaVu Sans" font-size="12.00">Nhà cung cấp\n/người bán</text>
</g>
<!-- SinhQRThanhToan -->
<g id="node17" class="node">
<title>SinhQRThanhToan</title>
<ellipse fill="#fff9f0" stroke="#c47a00" cx="1803.7" cy="-311.5" rx="94.09" ry="24.08"/>
<text text-anchor="middle" x="1803.7" y="-314.9" font-family="DejaVu Sans" font-size="12.00">Sinh QR thanh toán</text>
<text text-anchor="middle" x="1803.7" y="-301.9" font-family="DejaVu Sans" font-size="12.00">cho phần đã giao</text>
</g>
<!-- NhaCungCap&#45;&gt;SinhQRThanhToan -->
<g id="edge7" class="edge">
<title>NhaCungCap&#45;&gt;SinhQRThanhToan</title>
<path fill="none" stroke="#555555" d="M1623.87,-492.5C1670.13,-492.5 1716.74,-492.5 1716.74,-492.5 1716.74,-492.5 1716.74,-327.72 1716.74,-327.72"/>
<polygon fill="#555555" stroke="#555555" points="1719.19,-327.72 1716.74,-320.72 1714.29,-327.72 1719.19,-327.72"/>
</g>
<!-- DieuPhoi -->
<g id="node7" class="node">
<title>DieuPhoi</title>
<text text-anchor="start" x="1232.05" y="-33.3" font-family="DejaVu Sans" font-size="24.00">👤</text>
<text text-anchor="start" x="1205.05" y="-10.9" font-family="DejaVu Sans" font-size="12.00">Điều phối viên</text>
</g>
<!-- GiaoLai -->
<g id="node19" class="node">
<title>GiaoLai</title>
<ellipse fill="#f7faff" stroke="#3b6ea8" cx="1533.15" cy="-150.5" rx="67.2" ry="18"/>
<text text-anchor="middle" x="1533.15" y="-147.4" font-family="DejaVu Sans" font-size="12.00">Lên lịch giao lại</text>
</g>
<!-- DieuPhoi&#45;&gt;GiaoLai -->
<g id="edge8" class="edge">
<title>DieuPhoi&#45;&gt;GiaoLai</title>
<path fill="none" stroke="#555555" d="M1247.74,-61.28C1247.74,-95.65 1247.74,-146.5 1247.74,-146.5 1247.74,-146.5 1460.67,-146.5 1460.67,-146.5"/>
<polygon fill="#555555" stroke="#555555" points="1460.67,-148.95 1467.67,-146.5 1460.67,-144.05 1460.67,-148.95"/>
</g>
<!-- HoanHang -->
<g id="node20" class="node">
<title>HoanHang</title>
<ellipse fill="#fff3f0" stroke="#c44d32" cx="1533.15" cy="-304.5" rx="63.78" ry="24.08"/>
<text text-anchor="middle" x="1533.15" y="-307.9" font-family="DejaVu Sans" font-size="12.00">Tạo yêu cầu</text>
<text text-anchor="middle" x="1533.15" y="-294.9" font-family="DejaVu Sans" font-size="12.00">hoàn hàng</text>
</g>
<!-- DieuPhoi&#45;&gt;HoanHang -->
<g id="edge9" class="edge">
<title>DieuPhoi&#45;&gt;HoanHang</title>
<path fill="none" stroke="#555555" d="M1301.79,-40.67C1348.7,-40.67 1408.74,-40.67 1408.74,-40.67 1408.74,-40.67 1408.74,-296.23 1408.74,-296.23 1408.74,-296.23 1466.14,-296.23 1466.14,-296.23"/>
<polygon fill="#555555" stroke="#555555" points="1466.14,-298.68 1473.14,-296.23 1466.14,-293.78 1466.14,-298.68"/>
</g>
<!-- LuuKhoTam -->
<g id="node21" class="node">
<title>LuuKhoTam</title>
<ellipse fill="#f7faff" stroke="#3b6ea8" cx="1533.15" cy="-224.5" rx="67.35" ry="24.08"/>
<text text-anchor="middle" x="1533.15" y="-227.9" font-family="DejaVu Sans" font-size="12.00">Chuyển điểm</text>
<text text-anchor="middle" x="1533.15" y="-214.9" font-family="DejaVu Sans" font-size="12.00">lưu kho tạm</text>
</g>
<!-- DieuPhoi&#45;&gt;LuuKhoTam -->
<g id="edge10" class="edge">
<title>DieuPhoi&#45;&gt;LuuKhoTam</title>
<path fill="none" stroke="#555555" d="M1301.64,-20.33C1354.19,-20.33 1425.74,-20.33 1425.74,-20.33 1425.74,-20.33 1425.74,-211.73 1425.74,-211.73 1425.74,-211.73 1468.99,-211.73 1468.99,-211.73"/>
<polygon fill="#555555" stroke="#555555" points="1468.99,-214.18 1475.99,-211.73 1468.99,-209.28 1468.99,-214.18"/>
</g>
<!-- KeToan -->
<g id="node8" class="node">
<title>KeToan</title>
<text text-anchor="start" x="1231.55" y="-535.3" font-family="DejaVu Sans" font-size="24.00">👤</text>
<text text-anchor="start" x="1224.05" y="-512.9" font-family="DejaVu Sans" font-size="12.00">Kế toán</text>
</g>
<!-- KeToan&#45;&gt;ThuCOD -->
<g id="edge11" class="edge">
<title>KeToan&#45;&gt;ThuCOD</title>
<path fill="none" stroke="#555555" d="M1282.12,-512.5C1307.64,-512.5 1337.74,-512.5 1337.74,-512.5 1337.74,-512.5 1337.74,-393.69 1337.74,-393.69 1337.74,-393.69 1470.94,-393.69 1470.94,-393.69"/>
<polygon fill="#555555" stroke="#555555" points="1470.94,-396.14 1477.94,-393.69 1470.94,-391.24 1470.94,-396.14"/>
</g>
<!-- XuatHoaDon -->
<g id="node18" class="node">
<title>XuatHoaDon</title>
<ellipse fill="#fff9f0" stroke="#c47a00" cx="1803.7" cy="-391.5" rx="84.71" ry="24.08"/>
<text text-anchor="middle" x="1803.7" y="-394.9" font-family="DejaVu Sans" font-size="12.00">Xuất hóa đơn</text>
<text text-anchor="middle" x="1803.7" y="-381.9" font-family="DejaVu Sans" font-size="12.00">cho phần đã giao</text>
</g>
<!-- KeToan&#45;&gt;XuatHoaDon -->
<g id="edge12" class="edge">
<title>KeToan&#45;&gt;XuatHoaDon</title>
<path fill="none" stroke="#555555" d="M1282.3,-543C1404.67,-543 1803.74,-543 1803.74,-543 1803.74,-543 1803.74,-422.84 1803.74,-422.84"/>
<polygon fill="#555555" stroke="#555555" points="1806.19,-422.84 1803.74,-415.84 1801.29,-422.84 1806.19,-422.84"/>
</g>
<!-- GiaoHang&#45;&gt;KiemDemGiao -->
<g id="edge13" class="edge">
<title>GiaoHang&#45;&gt;KiemDemGiao</title>
<path fill="none" stroke="#555555" d="M343.1,-255.5C343.1,-255.5 423.99,-255.5 423.99,-255.5"/>
<polygon fill="#555555" stroke="#555555" points="423.99,-257.95 430.99,-255.5 423.99,-253.05 423.99,-257.95"/>
<text text-anchor="middle" x="385.9" y="-261.5" font-family="DejaVu Sans" font-size="10.00">include</text>
</g>
<!-- KiemDemGiao&#45;&gt;KyBienBan -->
<g id="edge14" class="edge">
<title>KiemDemGiao&#45;&gt;KyBienBan</title>
<path fill="none" stroke="#555555" d="M548.42,-241C548.42,-241 696.37,-241 696.37,-241"/>
<polygon fill="#555555" stroke="#555555" points="696.37,-243.45 703.37,-241 696.37,-238.55 696.37,-243.45"/>
<text text-anchor="middle" x="628.88" y="-254.5" font-family="DejaVu Sans" font-size="10.00">include</text>
</g>
<!-- KyBienBan&#45;&gt;LuuBangChung -->
<g id="edge15" class="edge">
<title>KyBienBan&#45;&gt;LuuBangChung</title>
<path fill="none" stroke="#555555" d="M738.74,-244.76C738.74,-268.58 738.74,-301.36 738.74,-301.36 738.74,-301.36 888.39,-301.36 888.39,-301.36"/>
<polygon fill="#555555" stroke="#555555" points="888.39,-303.81 895.39,-301.36 888.39,-298.91 888.39,-303.81"/>
<text text-anchor="middle" x="847.82" y="-268.5" font-family="DejaVu Sans" font-size="10.00">include</text>
</g>
<!-- GiaoThanhCong -->
<g id="node13" class="node">
<title>GiaoThanhCong</title>
<ellipse fill="#eef8f1" stroke="#2e8b57" cx="1247.05" cy="-390.5" rx="81.13" ry="24.08"/>
<text text-anchor="middle" x="1247.05" y="-393.9" font-family="DejaVu Sans" font-size="12.00">Giao thành công</text>
<text text-anchor="middle" x="1247.05" y="-380.9" font-family="DejaVu Sans" font-size="12.00">Đã giao hàng</text>
</g>
<!-- LuuBangChung&#45;&gt;GiaoThanhCong -->
<g id="edge16" class="edge">
<title>LuuBangChung&#45;&gt;GiaoThanhCong</title>
<path fill="none" stroke="#555555" d="M972.74,-333.8C972.74,-357.66 972.74,-390.5 972.74,-390.5 972.74,-390.5 1158.49,-390.5 1158.49,-390.5"/>
<polygon fill="#555555" stroke="#555555" points="1158.49,-392.95 1165.49,-390.5 1158.49,-388.05 1158.49,-392.95"/>
<text text-anchor="middle" x="1095.45" y="-376.5" font-family="DejaVu Sans" font-size="10.00">extend</text>
</g>
<!-- GiaoMotPhan -->
<g id="node14" class="node">
<title>GiaoMotPhan</title>
<ellipse fill="#fff9f0" stroke="#c47a00" cx="1247.05" cy="-309.5" rx="106.55" ry="24.08"/>
<text text-anchor="middle" x="1247.05" y="-312.9" font-family="DejaVu Sans" font-size="12.00">Giao một phần</text>
<text text-anchor="middle" x="1247.05" y="-299.9" font-family="DejaVu Sans" font-size="12.00">ghi số kiện giao / hoàn</text>
</g>
<!-- LuuBangChung&#45;&gt;GiaoMotPhan -->
<g id="edge17" class="edge">
<title>LuuBangChung&#45;&gt;GiaoMotPhan</title>
<path fill="none" stroke="#555555" d="M1053.5,-309.5C1053.5,-309.5 1133.13,-309.5 1133.13,-309.5"/>
<polygon fill="#555555" stroke="#555555" points="1133.13,-311.95 1140.13,-309.5 1133.13,-307.05 1133.13,-311.95"/>
<text text-anchor="middle" x="1095.45" y="-312.5" font-family="DejaVu Sans" font-size="10.00">extend</text>
</g>
<!-- GiaoThatBai -->
<g id="node15" class="node">
<title>GiaoThatBai</title>
<ellipse fill="#fff3f0" stroke="#c44d32" cx="1247.05" cy="-221.5" rx="109.7" ry="24.08"/>
<text text-anchor="middle" x="1247.05" y="-224.9" font-family="DejaVu Sans" font-size="12.00">Giao không thành công</text>
<text text-anchor="middle" x="1247.05" y="-211.9" font-family="DejaVu Sans" font-size="12.00">ghi lý do</text>
</g>
<!-- LuuBangChung&#45;&gt;GiaoThatBai -->
<g id="edge18" class="edge">
<title>LuuBangChung&#45;&gt;GiaoThatBai</title>
<path fill="none" stroke="#555555" d="M972.74,-285.32C972.74,-259.11 972.74,-221 972.74,-221 972.74,-221 1130.46,-221 1130.46,-221"/>
<polygon fill="#555555" stroke="#555555" points="1130.46,-223.45 1137.46,-221 1130.46,-218.55 1130.46,-223.45"/>
<text text-anchor="middle" x="1095.45" y="-244.5" font-family="DejaVu Sans" font-size="10.00">extend</text>
</g>
<!-- GiaoThanhCong&#45;&gt;ThuCOD -->
<g id="edge19" class="edge">
<title>GiaoThanhCong&#45;&gt;ThuCOD</title>
<path fill="none" stroke="#555555" d="M1327.51,-386.88C1327.51,-386.88 1457.92,-386.88 1457.92,-386.88"/>
<polygon fill="#555555" stroke="#555555" points="1457.92,-389.33 1464.92,-386.88 1457.92,-384.43 1457.92,-389.33"/>
<text text-anchor="middle" x="1399.65" y="-407.5" font-family="DejaVu Sans" font-size="10.00">extend</text>
</g>
<!-- GiaoMotPhan&#45;&gt;ThuCOD -->
<g id="edge20" class="edge">
<title>GiaoMotPhan&#45;&gt;ThuCOD</title>
<path fill="none" stroke="#555555" d="M1345.74,-318.73C1345.74,-337.86 1345.74,-380.08 1345.74,-380.08 1345.74,-380.08 1456.37,-380.08 1456.37,-380.08"/>
<polygon fill="#555555" stroke="#555555" points="1456.37,-382.53 1463.37,-380.08 1456.37,-377.63 1456.37,-382.53"/>
<text text-anchor="middle" x="1399.65" y="-359.5" font-family="DejaVu Sans" font-size="10.00">extend</text>
</g>
<!-- GiaoMotPhan&#45;&gt;HoanHang -->
<g id="edge23" class="edge">
<title>GiaoMotPhan&#45;&gt;HoanHang</title>
<path fill="none" stroke="#555555" d="M1347.52,-317.77C1347.52,-317.77 1472.92,-317.77 1472.92,-317.77"/>
<polygon fill="#555555" stroke="#555555" points="1472.92,-320.22 1479.92,-317.77 1472.92,-315.32 1472.92,-320.22"/>
<text text-anchor="middle" x="1399.65" y="-311.5" font-family="DejaVu Sans" font-size="10.00">include</text>
</g>
<!-- GiaoThatBai&#45;&gt;GiaoLai -->
<g id="edge24" class="edge">
<title>GiaoThatBai&#45;&gt;GiaoLai</title>
<path fill="none" stroke="#555555" d="M1329.74,-205.68C1329.74,-186.73 1329.74,-157.5 1329.74,-157.5 1329.74,-157.5 1464.3,-157.5 1464.3,-157.5"/>
<polygon fill="#555555" stroke="#555555" points="1464.3,-159.95 1471.3,-157.5 1464.3,-155.05 1464.3,-159.95"/>
<text text-anchor="middle" x="1399.65" y="-167.5" font-family="DejaVu Sans" font-size="10.00">extend</text>
</g>
<!-- GiaoThatBai&#45;&gt;HoanHang -->
<g id="edge25" class="edge">
<title>GiaoThatBai&#45;&gt;HoanHang</title>
<path fill="none" stroke="#555555" d="M1356.72,-223C1376.9,-223 1391.74,-223 1391.74,-223 1391.74,-223 1391.74,-307 1391.74,-307 1391.74,-307 1462.48,-307 1462.48,-307"/>
<polygon fill="#555555" stroke="#555555" points="1462.48,-309.45 1469.48,-307 1462.48,-304.55 1462.48,-309.45"/>
<text text-anchor="middle" x="1399.65" y="-263.5" font-family="DejaVu Sans" font-size="10.00">extend</text>
</g>
<!-- GiaoThatBai&#45;&gt;LuuKhoTam -->
<g id="edge26" class="edge">
<title>GiaoThatBai&#45;&gt;LuuKhoTam</title>
<path fill="none" stroke="#555555" d="M1339.94,-234.27C1339.94,-234.27 1464.39,-234.27 1464.39,-234.27"/>
<polygon fill="#555555" stroke="#555555" points="1464.39,-236.72 1471.39,-234.27 1464.39,-231.82 1464.39,-236.72"/>
<text text-anchor="middle" x="1399.65" y="-215.5" font-family="DejaVu Sans" font-size="10.00">extend</text>
</g>
<!-- ThuCOD&#45;&gt;SinhQRThanhToan -->
<g id="edge21" class="edge">
<title>ThuCOD&#45;&gt;SinhQRThanhToan</title>
<path fill="none" stroke="#555555" d="M1601.56,-378.47C1652.31,-378.47 1712.74,-378.47 1712.74,-378.47 1712.74,-378.47 1712.74,-324.68 1712.74,-324.68"/>
<polygon fill="#555555" stroke="#555555" points="1715.19,-324.68 1712.74,-317.68 1710.29,-324.68 1715.19,-324.68"/>
<text text-anchor="middle" x="1666.65" y="-327.5" font-family="DejaVu Sans" font-size="10.00">include</text>
</g>
<!-- ThuCOD&#45;&gt;XuatHoaDon -->
<g id="edge22" class="edge">
<title>ThuCOD&#45;&gt;XuatHoaDon</title>
<path fill="none" stroke="#555555" d="M1597.96,-389.49C1597.96,-389.49 1711.94,-389.49 1711.94,-389.49"/>
<polygon fill="#555555" stroke="#555555" points="1711.94,-391.94 1718.94,-389.49 1711.94,-387.04 1711.94,-391.94"/>
<text text-anchor="middle" x="1666.65" y="-388.5" font-family="DejaVu Sans" font-size="10.00">include</text>
</g>
</g>
</svg>
