<?xml version="1.0" encoding="UTF-8" standalone="no"?>
<!DOCTYPE svg PUBLIC "-//W3C//DTD SVG 1.1//EN"
 "http://www.w3.org/Graphics/SVG/1.1/DTD/svg11.dtd">
<!-- Generated by graphviz version 2.42.4 (0)
 -->
<!-- Title: G Pages: 1 -->
<svg width="801pt" height="812pt"
 viewBox="0.00 0.00 801.35 811.90" xmlns="http://www.w3.org/2000/svg" xmlns:xlink="http://www.w3.org/1999/xlink">
<g id="graph0" class="graph" transform="scale(1 1) rotate(0) translate(25.2 786.7)">
<title>G</title>
<polygon fill="white" stroke="transparent" points="-25.2,25.2 -25.2,-786.7 776.15,-786.7 776.15,25.2 -25.2,25.2"/>
<text text-anchor="middle" x="375.48" y="-741.5" font-family="DejaVu Sans" font-size="20.00">Package 6 &#45; Công nợ, COD, hóa đơn &amp; đối soát</text>
<g id="clust1" class="cluster">
<title>cluster_sys</title>
<path fill="white" stroke="#b8c4d0" stroke-dasharray="5,2" d="M240,-229.5C240,-229.5 730.95,-229.5 730.95,-229.5 736.95,-229.5 742.95,-235.5 742.95,-241.5 742.95,-241.5 742.95,-711.5 742.95,-711.5 742.95,-717.5 736.95,-723.5 730.95,-723.5 730.95,-723.5 240,-723.5 240,-723.5 234,-723.5 228,-717.5 228,-711.5 228,-711.5 228,-241.5 228,-241.5 228,-235.5 234,-229.5 240,-229.5"/>
<text text-anchor="middle" x="485.48" y="-703.5" font-family="DejaVu Sans" font-size="20.00">Hệ thống Logistic Medcon</text>
</g>
<!-- actor -->
<g id="node1" class="node">
<title>actor</title>
<text text-anchor="middle" x="92.5" y="-51.4" font-family="DejaVu Sans" font-size="12.00">actor</text>
</g>
<!-- usecase -->
<g id="node2" class="node">
<title>usecase</title>
<ellipse fill="#f7faff" stroke="#3b6ea8" stroke-width="1.2" cx="92.5" cy="-122.5" rx="40.03" ry="18"/>
<text text-anchor="middle" x="92.5" y="-119.4" font-family="DejaVu Sans" font-size="12.00">usecase</text>
</g>
<!-- system -->
<g id="node3" class="node">
<title>system</title>
<path fill="none" stroke="#9aa7b3" stroke-width="1.2" d="M110,-208.5C110,-208.5 75,-208.5 75,-208.5 69,-208.5 63,-202.5 63,-196.5 63,-196.5 63,-184.5 63,-184.5 63,-178.5 69,-172.5 75,-172.5 75,-172.5 110,-172.5 110,-172.5 116,-172.5 122,-178.5 122,-184.5 122,-184.5 122,-196.5 122,-196.5 122,-202.5 116,-208.5 110,-208.5"/>
<text text-anchor="middle" x="92.5" y="-187.4" font-family="DejaVu Sans" font-size="12.00">system</text>
</g>
<!-- KeToan -->
<g id="node4" class="node">
<title>KeToan</title>
<text text-anchor="start" x="77" y="-467.3" font-family="DejaVu Sans" font-size="24.00">👤</text>
<text text-anchor="start" x="69.5" y="-444.9" font-family="DejaVu Sans" font-size="12.00">Kế toán</text>
</g>
<!-- GhiCuocDuKien -->
<g id="node9" class="node">
<title>GhiCuocDuKien</title>
<ellipse fill="#fff9f0" stroke="#c47a00" cx="331.46" cy="-444.5" rx="94.09" ry="24.08"/>
<text text-anchor="middle" x="331.46" y="-447.9" font-family="DejaVu Sans" font-size="12.00">Ghi nhận cước</text>
<text text-anchor="middle" x="331.46" y="-434.9" font-family="DejaVu Sans" font-size="12.00">vận chuyển dự kiến</text>
</g>
<!-- KeToan&#45;&gt;GhiCuocDuKien -->
<g id="edge1" class="edge">
<title>KeToan&#45;&gt;GhiCuocDuKien</title>
<path fill="none" stroke="#555555" d="M127.5,-459.91C127.5,-459.91 251.84,-459.91 251.84,-459.91"/>
<polygon fill="#555555" stroke="#555555" points="251.84,-462.36 258.84,-459.91 251.84,-457.46 251.84,-462.36"/>
</g>
<!-- TheoDoiCongNoGui -->
<g id="node10" class="node">
<title>TheoDoiCongNoGui</title>
<ellipse fill="#fff9f0" stroke="#c47a00" cx="623.93" cy="-501.5" rx="84.71" ry="24.08"/>
<text text-anchor="middle" x="623.93" y="-504.9" font-family="DejaVu Sans" font-size="12.00">Theo dõi công nợ</text>
<text text-anchor="middle" x="623.93" y="-491.9" font-family="DejaVu Sans" font-size="12.00">khách gửi</text>
</g>
<!-- KeToan&#45;&gt;TheoDoiCongNoGui -->
<g id="edge2" class="edge">
<title>KeToan&#45;&gt;TheoDoiCongNoGui</title>
<path fill="none" stroke="#555555" d="M127.78,-490.61C127.78,-490.61 541.04,-490.61 541.04,-490.61"/>
<polygon fill="#555555" stroke="#555555" points="541.04,-493.06 548.04,-490.61 541.04,-488.16 541.04,-493.06"/>
</g>
<!-- GhiThuCOD -->
<g id="node11" class="node">
<title>GhiThuCOD</title>
<ellipse fill="#fff9f0" stroke="#c47a00" cx="331.46" cy="-364.5" rx="67.76" ry="24.08"/>
<text text-anchor="middle" x="331.46" y="-367.9" font-family="DejaVu Sans" font-size="12.00">Ghi nhận tiền</text>
<text text-anchor="middle" x="331.46" y="-354.9" font-family="DejaVu Sans" font-size="12.00">thu hộ COD</text>
</g>
<!-- KeToan&#45;&gt;GhiThuCOD -->
<g id="edge3" class="edge">
<title>KeToan&#45;&gt;GhiThuCOD</title>
<path fill="none" stroke="#555555" d="M127.66,-451.27C165.39,-451.27 219.95,-451.27 219.95,-451.27 219.95,-451.27 219.95,-372.51 219.95,-372.51 219.95,-372.51 260.24,-372.51 260.24,-372.51"/>
<polygon fill="#555555" stroke="#555555" points="260.24,-374.96 267.24,-372.51 260.24,-370.06 260.24,-374.96"/>
</g>
<!-- TinhPhiNoiBo -->
<g id="node13" class="node">
<title>TinhPhiNoiBo</title>
<ellipse fill="#fff9f0" stroke="#c47a00" cx="331.46" cy="-283.5" rx="95.42" ry="24.08"/>
<text text-anchor="middle" x="331.46" y="-286.9" font-family="DejaVu Sans" font-size="12.00">Tính phí phải trả</text>
<text text-anchor="middle" x="331.46" y="-273.9" font-family="DejaVu Sans" font-size="12.00">tỉnh / hub / xe ngoài</text>
</g>
<!-- KeToan&#45;&gt;TinhPhiNoiBo -->
<g id="edge4" class="edge">
<title>KeToan&#45;&gt;TinhPhiNoiBo</title>
<path fill="none" stroke="#555555" d="M127.75,-442.64C160.07,-442.64 202.95,-442.64 202.95,-442.64 202.95,-442.64 202.95,-287.82 202.95,-287.82 202.95,-287.82 230.39,-287.82 230.39,-287.82"/>
<polygon fill="#555555" stroke="#555555" points="230.39,-290.27 237.39,-287.82 230.39,-285.37 230.39,-290.27"/>
</g>
<!-- DoiSoatKy -->
<g id="node14" class="node">
<title>DoiSoatKy</title>
<ellipse fill="#fff9f0" stroke="#c47a00" cx="331.46" cy="-524.5" rx="67.35" ry="24.08"/>
<text text-anchor="middle" x="331.46" y="-527.9" font-family="DejaVu Sans" font-size="12.00">Chốt đối soát</text>
<text text-anchor="middle" x="331.46" y="-514.9" font-family="DejaVu Sans" font-size="12.00">theo kỳ</text>
</g>
<!-- KeToan&#45;&gt;DoiSoatKy -->
<g id="edge5" class="edge">
<title>KeToan&#45;&gt;DoiSoatKy</title>
<path fill="none" stroke="#555555" d="M104.95,-495.2C104.95,-509.97 104.95,-524.5 104.95,-524.5 104.95,-524.5 257.11,-524.5 257.11,-524.5"/>
<polygon fill="#555555" stroke="#555555" points="257.11,-526.95 264.11,-524.5 257.11,-522.05 257.11,-526.95"/>
</g>
<!-- XuatHoaDon -->
<g id="node16" class="node">
<title>XuatHoaDon</title>
<ellipse fill="#fff9f0" stroke="#c47a00" cx="623.93" cy="-661.5" rx="89.61" ry="24.08"/>
<text text-anchor="middle" x="623.93" y="-664.9" font-family="DejaVu Sans" font-size="12.00">Xuất hóa đơn</text>
<text text-anchor="middle" x="623.93" y="-651.9" font-family="DejaVu Sans" font-size="12.00">/ biên bản đối soát</text>
</g>
<!-- KeToan&#45;&gt;XuatHoaDon -->
<g id="edge6" class="edge">
<title>KeToan&#45;&gt;XuatHoaDon</title>
<path fill="none" stroke="#555555" d="M80.95,-495.28C80.95,-550.69 80.95,-661.5 80.95,-661.5 80.95,-661.5 526.97,-661.5 526.97,-661.5"/>
<polygon fill="#555555" stroke="#555555" points="526.97,-663.95 533.97,-661.5 526.97,-659.05 526.97,-663.95"/>
</g>
<!-- KhachGui -->
<g id="node5" class="node">
<title>KhachGui</title>
<text text-anchor="start" x="316.46" y="-193.3" font-family="DejaVu Sans" font-size="24.00">👤</text>
<text text-anchor="start" x="256.46" y="-170.9" font-family="DejaVu Sans" font-size="12.00">Khách gửi / nhà cung cấp</text>
</g>
<!-- KhachGui&#45;&gt;TheoDoiCongNoGui -->
<g id="edge7" class="edge">
<title>KhachGui&#45;&gt;TheoDoiCongNoGui</title>
<path fill="none" stroke="#555555" d="M419.17,-200.67C446.65,-200.67 469.95,-200.67 469.95,-200.67 469.95,-200.67 469.95,-481.84 469.95,-481.84 469.95,-481.84 567.79,-481.84 567.79,-481.84"/>
<polygon fill="#555555" stroke="#555555" points="567.79,-484.29 574.79,-481.84 567.79,-479.39 567.79,-484.29"/>
</g>
<!-- DoiTruHoanTra -->
<g id="node17" class="node">
<title>DoiTruHoanTra</title>
<ellipse fill="#fff9f0" stroke="#c47a00" cx="623.93" cy="-421.5" rx="111.03" ry="24.08"/>
<text text-anchor="middle" x="623.93" y="-424.9" font-family="DejaVu Sans" font-size="12.00">Đối trừ / hoàn trả</text>
<text text-anchor="middle" x="623.93" y="-411.9" font-family="DejaVu Sans" font-size="12.00">tiền COD cho khách gửi</text>
</g>
<!-- KhachGui&#45;&gt;DoiTruHoanTra -->
<g id="edge8" class="edge">
<title>KhachGui&#45;&gt;DoiTruHoanTra</title>
<path fill="none" stroke="#555555" d="M419.04,-180.33C467.07,-180.33 516.95,-180.33 516.95,-180.33 516.95,-180.33 516.95,-408.05 516.95,-408.05"/>
<polygon fill="#555555" stroke="#555555" points="514.5,-408.05 516.95,-415.05 519.4,-408.05 514.5,-408.05"/>
</g>
<!-- KhachNhan -->
<g id="node6" class="node">
<title>KhachNhan</title>
<text text-anchor="start" x="77.5" y="-367.3" font-family="DejaVu Sans" font-size="24.00">👤</text>
<text text-anchor="start" x="40.5" y="-344.9" font-family="DejaVu Sans" font-size="12.00">Khách nhận hàng</text>
</g>
<!-- KhachNhan&#45;&gt;GhiThuCOD -->
<g id="edge9" class="edge">
<title>KhachNhan&#45;&gt;GhiThuCOD</title>
<path fill="none" stroke="#555555" d="M157.17,-356.49C157.17,-356.49 260.16,-356.49 260.16,-356.49"/>
<polygon fill="#555555" stroke="#555555" points="260.16,-358.94 267.16,-356.49 260.16,-354.04 260.16,-358.94"/>
</g>
<!-- TheoDoiNoNhan -->
<g id="node12" class="node">
<title>TheoDoiNoNhan</title>
<ellipse fill="#fff9f0" stroke="#c47a00" cx="623.93" cy="-341.5" rx="98.99" ry="24.08"/>
<text text-anchor="middle" x="623.93" y="-344.9" font-family="DejaVu Sans" font-size="12.00">Theo dõi khoản</text>
<text text-anchor="middle" x="623.93" y="-331.9" font-family="DejaVu Sans" font-size="12.00">khách nhận chưa trả</text>
</g>
<!-- KhachNhan&#45;&gt;TheoDoiNoNhan -->
<g id="edge10" class="edge">
<title>KhachNhan&#45;&gt;TheoDoiNoNhan</title>
<path fill="none" stroke="#555555" d="M92.95,-333.95C92.95,-329.15 92.95,-325.73 92.95,-325.73 92.95,-325.73 541.98,-325.73 541.98,-325.73"/>
<polygon fill="#555555" stroke="#555555" points="541.98,-328.18 548.98,-325.73 541.98,-323.28 541.98,-328.18"/>
</g>
<!-- DoiTac -->
<g id="node7" class="node">
<title>DoiTac</title>
<text text-anchor="start" x="77.5" y="-274.3" font-family="DejaVu Sans" font-size="24.00">👤</text>
<text text-anchor="start" x="12.5" y="-251.9" font-family="DejaVu Sans" font-size="12.00">Công ty tỉnh / Hub / Nhà xe</text>
</g>
<!-- DoiTac&#45;&gt;TinhPhiNoiBo -->
<g id="edge11" class="edge">
<title>DoiTac&#45;&gt;TinhPhiNoiBo</title>
<path fill="none" stroke="#555555" d="M185.23,-273.64C185.23,-273.64 237.26,-273.64 237.26,-273.64"/>
<polygon fill="#555555" stroke="#555555" points="237.26,-276.09 244.26,-273.64 237.26,-271.19 237.26,-276.09"/>
</g>
<!-- QuanLy -->
<g id="node8" class="node">
<title>QuanLy</title>
<text text-anchor="start" x="315.96" y="-33.3" font-family="DejaVu Sans" font-size="24.00">👤</text>
<text text-anchor="start" x="278.46" y="-10.9" font-family="DejaVu Sans" font-size="12.00">Quản lý vận hành</text>
</g>
<!-- BaoCaoTaiChinh -->
<g id="node18" class="node">
<title>BaoCaoTaiChinh</title>
<ellipse fill="#f7faff" stroke="#3b6ea8" cx="623.93" cy="-261.5" rx="103.48" ry="24.08"/>
<text text-anchor="middle" x="623.93" y="-264.9" font-family="DejaVu Sans" font-size="12.00">Báo cáo công nợ</text>
<text text-anchor="middle" x="623.93" y="-251.9" font-family="DejaVu Sans" font-size="12.00">COD / phải trả đối tác</text>
</g>
<!-- QuanLy&#45;&gt;BaoCaoTaiChinh -->
<g id="edge12" class="edge">
<title>QuanLy&#45;&gt;BaoCaoTaiChinh</title>
<path fill="none" stroke="#555555" d="M396.74,-30.5C482.94,-30.5 623.95,-30.5 623.95,-30.5 623.95,-30.5 623.95,-230.22 623.95,-230.22"/>
<polygon fill="#555555" stroke="#555555" points="621.5,-230.22 623.95,-237.22 626.4,-230.22 621.5,-230.22"/>
</g>
<!-- GhiCuocDuKien&#45;&gt;TheoDoiCongNoGui -->
<g id="edge13" class="edge">
<title>GhiCuocDuKien&#45;&gt;TheoDoiCongNoGui</title>
<path fill="none" stroke="#555555" d="M412.95,-456.79C412.95,-469.1 412.95,-486.23 412.95,-486.23 412.95,-486.23 551.33,-486.23 551.33,-486.23"/>
<polygon fill="#555555" stroke="#555555" points="551.33,-488.68 558.33,-486.23 551.33,-483.78 551.33,-488.68"/>
<text text-anchor="middle" x="469.92" y="-471.5" font-family="DejaVu Sans" font-size="10.00">include</text>
</g>
<!-- GhiThuCOD&#45;&gt;TheoDoiNoNhan -->
<g id="edge14" class="edge">
<title>GhiThuCOD&#45;&gt;TheoDoiNoNhan</title>
<path fill="none" stroke="#555555" d="M391.35,-353C391.35,-353 529.94,-353 529.94,-353"/>
<polygon fill="#555555" stroke="#555555" points="529.94,-355.45 536.94,-353 529.94,-350.55 529.94,-355.45"/>
<text text-anchor="middle" x="469.92" y="-355.5" font-family="DejaVu Sans" font-size="10.00">extend</text>
</g>
<!-- TinhPhiNoiBo&#45;&gt;BaoCaoTaiChinh -->
<g id="edge18" class="edge">
<title>TinhPhiNoiBo&#45;&gt;BaoCaoTaiChinh</title>
<path fill="none" stroke="#555555" d="M416.45,-272.5C416.45,-272.5 525.09,-272.5 525.09,-272.5"/>
<polygon fill="#555555" stroke="#555555" points="525.09,-274.95 532.09,-272.5 525.09,-270.05 525.09,-274.95"/>
<text text-anchor="middle" x="469.92" y="-286.5" font-family="DejaVu Sans" font-size="10.00">include</text>
</g>
<!-- TaoBangKe -->
<g id="node15" class="node">
<title>TaoBangKe</title>
<ellipse fill="#fff9f0" stroke="#c47a00" cx="623.93" cy="-581.5" rx="64.19" ry="24.08"/>
<text text-anchor="middle" x="623.93" y="-584.9" font-family="DejaVu Sans" font-size="12.00">Tạo bảng kê</text>
<text text-anchor="middle" x="623.93" y="-571.9" font-family="DejaVu Sans" font-size="12.00">thanh toán</text>
</g>
<!-- DoiSoatKy&#45;&gt;TaoBangKe -->
<g id="edge15" class="edge">
<title>DoiSoatKy&#45;&gt;TaoBangKe</title>
<path fill="none" stroke="#555555" d="M394.21,-533.21C480.15,-533.21 623.95,-533.21 623.95,-533.21 623.95,-533.21 623.95,-550.35 623.95,-550.35"/>
<polygon fill="#555555" stroke="#555555" points="621.5,-550.35 623.95,-557.35 626.4,-550.35 621.5,-550.35"/>
<text text-anchor="middle" x="469.92" y="-519.5" font-family="DejaVu Sans" font-size="10.00">include</text>
</g>
<!-- DoiSoatKy&#45;&gt;XuatHoaDon -->
<g id="edge16" class="edge">
<title>DoiSoatKy&#45;&gt;XuatHoaDon</title>
<path fill="none" stroke="#555555" d="M380.77,-540.87C445.21,-540.87 549.95,-540.87 549.95,-540.87 549.95,-540.87 549.95,-640.66 549.95,-640.66"/>
<polygon fill="#555555" stroke="#555555" points="547.5,-640.66 549.95,-647.66 552.4,-640.66 547.5,-640.66"/>
<text text-anchor="middle" x="469.92" y="-567.5" font-family="DejaVu Sans" font-size="10.00">include</text>
</g>
<!-- DoiSoatKy&#45;&gt;DoiTruHoanTra -->
<g id="edge17" class="edge">
<title>DoiSoatKy&#45;&gt;DoiTruHoanTra</title>
<path fill="none" stroke="#555555" d="M390.52,-513C447.1,-513 523.95,-513 523.95,-513 523.95,-513 523.95,-439 523.95,-439"/>
<polygon fill="#555555" stroke="#555555" points="526.4,-439 523.95,-432 521.5,-439 526.4,-439"/>
<text text-anchor="middle" x="469.92" y="-423.5" font-family="DejaVu Sans" font-size="10.00">include</text>
</g>
</g>
</svg>
