<?xml version="1.0" encoding="UTF-8" standalone="no"?>
<!DOCTYPE svg PUBLIC "-//W3C//DTD SVG 1.1//EN"
 "http://www.w3.org/Graphics/SVG/1.1/DTD/svg11.dtd">
<!-- Generated by graphviz version 2.42.4 (0)
 -->
<!-- Title: G Pages: 1 -->
<svg width="1020pt" height="884pt"
 viewBox="0.00 0.00 1020.44 883.90" xmlns="http://www.w3.org/2000/svg" xmlns:xlink="http://www.w3.org/1999/xlink">
<g id="graph0" class="graph" transform="scale(1 1) rotate(0) translate(25.2 858.7)">
<title>G</title>
<polygon fill="white" stroke="transparent" points="-25.2,25.2 -25.2,-858.7 995.24,-858.7 995.24,25.2 -25.2,25.2"/>
<text text-anchor="middle" x="485.02" y="-813.5" font-family="DejaVu Sans" font-size="20.00">Package 7 &#45; Quản trị vận hành nền</text>
<g id="clust1" class="cluster">
<title>cluster_sys</title>
<path fill="white" stroke="#b8c4d0" stroke-dasharray="5,2" d="M185,-85.5C185,-85.5 950.04,-85.5 950.04,-85.5 956.04,-85.5 962.04,-91.5 962.04,-97.5 962.04,-97.5 962.04,-783.5 962.04,-783.5 962.04,-789.5 956.04,-795.5 950.04,-795.5 950.04,-795.5 185,-795.5 185,-795.5 179,-795.5 173,-789.5 173,-783.5 173,-783.5 173,-97.5 173,-97.5 173,-91.5 179,-85.5 185,-85.5"/>
<text text-anchor="middle" x="567.52" y="-775.5" font-family="DejaVu Sans" font-size="20.00">Hệ thống Logistic Medcon</text>
</g>
<!-- actor -->
<g id="node1" class="node">
<title>actor</title>
<text text-anchor="middle" x="65" y="-50.4" font-family="DejaVu Sans" font-size="12.00">actor</text>
</g>
<!-- usecase -->
<g id="node2" class="node">
<title>usecase</title>
<ellipse fill="#f7faff" stroke="#3b6ea8" stroke-width="1.2" cx="65" cy="-121.5" rx="40.03" ry="18"/>
<text text-anchor="middle" x="65" y="-118.4" font-family="DejaVu Sans" font-size="12.00">usecase</text>
</g>
<!-- system -->
<g id="node3" class="node">
<title>system</title>
<path fill="none" stroke="#9aa7b3" stroke-width="1.2" d="M82.5,-207.5C82.5,-207.5 47.5,-207.5 47.5,-207.5 41.5,-207.5 35.5,-201.5 35.5,-195.5 35.5,-195.5 35.5,-183.5 35.5,-183.5 35.5,-177.5 41.5,-171.5 47.5,-171.5 47.5,-171.5 82.5,-171.5 82.5,-171.5 88.5,-171.5 94.5,-177.5 94.5,-183.5 94.5,-183.5 94.5,-195.5 94.5,-195.5 94.5,-201.5 88.5,-207.5 82.5,-207.5"/>
<text text-anchor="middle" x="65" y="-186.4" font-family="DejaVu Sans" font-size="12.00">system</text>
</g>
<!-- QuanLy -->
<g id="node4" class="node">
<title>QuanLy</title>
<text text-anchor="start" x="49.5" y="-520.3" font-family="DejaVu Sans" font-size="24.00">👤</text>
<text text-anchor="start" x="12" y="-497.9" font-family="DejaVu Sans" font-size="12.00">Quản lý vận hành</text>
</g>
<!-- QuanLyXe -->
<g id="node9" class="node">
<title>QuanLyXe</title>
<ellipse fill="#f7faff" stroke="#3b6ea8" cx="306.87" cy="-517.5" rx="90.52" ry="24.08"/>
<text text-anchor="middle" x="306.87" y="-520.9" font-family="DejaVu Sans" font-size="12.00">Quản lý hồ sơ xe</text>
<text text-anchor="middle" x="306.87" y="-507.9" font-family="DejaVu Sans" font-size="12.00">nội bộ / thuê ngoài</text>
</g>
<!-- QuanLy&#45;&gt;QuanLyXe -->
<g id="edge1" class="edge">
<title>QuanLy&#45;&gt;QuanLyXe</title>
<path fill="none" stroke="#555555" d="M130.13,-525.51C130.13,-525.51 214.14,-525.51 214.14,-525.51"/>
<polygon fill="#555555" stroke="#555555" points="214.14,-527.96 221.14,-525.51 214.14,-523.06 214.14,-527.96"/>
</g>
<!-- QuanLyShipper -->
<g id="node13" class="node">
<title>QuanLyShipper</title>
<ellipse fill="#f7faff" stroke="#3b6ea8" cx="306.87" cy="-397.5" rx="123.99" ry="24.08"/>
<text text-anchor="middle" x="306.87" y="-400.9" font-family="DejaVu Sans" font-size="12.00">Quản lý hồ sơ</text>
<text text-anchor="middle" x="306.87" y="-387.9" font-family="DejaVu Sans" font-size="12.00">shipper / tài xế / nhân viên</text>
</g>
<!-- QuanLy&#45;&gt;QuanLyShipper -->
<g id="edge2" class="edge">
<title>QuanLy&#45;&gt;QuanLyShipper</title>
<path fill="none" stroke="#555555" d="M130.15,-509.49C161.78,-509.49 193.04,-509.49 193.04,-509.49 193.04,-509.49 193.04,-414.05 193.04,-414.05"/>
<polygon fill="#555555" stroke="#555555" points="195.49,-414.05 193.04,-407.05 190.59,-414.05 195.49,-414.05"/>
</g>
<!-- BaoCaoVanHanh -->
<g id="node22" class="node">
<title>BaoCaoVanHanh</title>
<ellipse fill="#f7faff" stroke="#3b6ea8" cx="630.45" cy="-733.5" rx="105.22" ry="24.08"/>
<text text-anchor="middle" x="630.45" y="-736.9" font-family="DejaVu Sans" font-size="12.00">Báo cáo năng lực</text>
<text text-anchor="middle" x="630.45" y="-723.9" font-family="DejaVu Sans" font-size="12.00">và hiệu suất vận hành</text>
</g>
<!-- QuanLy&#45;&gt;BaoCaoVanHanh -->
<g id="edge3" class="edge">
<title>QuanLy&#45;&gt;BaoCaoVanHanh</title>
<path fill="none" stroke="#555555" d="M125.04,-548.45C125.04,-608.17 125.04,-733.5 125.04,-733.5 125.04,-733.5 517.81,-733.5 517.81,-733.5"/>
<polygon fill="#555555" stroke="#555555" points="517.81,-735.95 524.81,-733.5 517.81,-731.05 517.81,-735.95"/>
</g>
<!-- DieuPhoi -->
<g id="node5" class="node">
<title>DieuPhoi</title>
<text text-anchor="start" x="50" y="-628.3" font-family="DejaVu Sans" font-size="24.00">👤</text>
<text text-anchor="start" x="23" y="-605.9" font-family="DejaVu Sans" font-size="12.00">Điều phối viên</text>
</g>
<!-- GPSXe -->
<g id="node11" class="node">
<title>GPSXe</title>
<ellipse fill="#f7faff" stroke="#3b6ea8" cx="630.45" cy="-653.5" rx="67.76" ry="24.08"/>
<text text-anchor="middle" x="630.45" y="-656.9" font-family="DejaVu Sans" font-size="12.00">Theo dõi GPS</text>
<text text-anchor="middle" x="630.45" y="-643.9" font-family="DejaVu Sans" font-size="12.00">và nhiên liệu</text>
</g>
<!-- DieuPhoi&#45;&gt;GPSXe -->
<g id="edge4" class="edge">
<title>DieuPhoi&#45;&gt;GPSXe</title>
<path fill="none" stroke="#555555" d="M119.73,-647.15C119.73,-647.15 557.9,-647.15 557.9,-647.15"/>
<polygon fill="#555555" stroke="#555555" points="557.9,-649.6 564.9,-647.15 557.9,-644.7 557.9,-649.6"/>
</g>
<!-- PhanQuyenTang -->
<g id="node21" class="node">
<title>PhanQuyenTang</title>
<ellipse fill="#f7faff" stroke="#3b6ea8" cx="306.87" cy="-603.5" rx="105.22" ry="24.08"/>
<text text-anchor="middle" x="306.87" y="-606.9" font-family="DejaVu Sans" font-size="12.00">Phân quyền theo tầng</text>
<text text-anchor="middle" x="306.87" y="-593.9" font-family="DejaVu Sans" font-size="12.00">tổng / tỉnh / hub</text>
</g>
<!-- DieuPhoi&#45;&gt;PhanQuyenTang -->
<g id="edge5" class="edge">
<title>DieuPhoi&#45;&gt;PhanQuyenTang</title>
<path fill="none" stroke="#555555" d="M119.58,-611.27C119.58,-611.27 199.81,-611.27 199.81,-611.27"/>
<polygon fill="#555555" stroke="#555555" points="199.81,-613.72 206.81,-611.27 199.81,-608.82 199.81,-613.72"/>
</g>
<!-- NhanSu -->
<g id="node6" class="node">
<title>NhanSu</title>
<text text-anchor="start" x="50" y="-273.3" font-family="DejaVu Sans" font-size="24.00">👤</text>
<text text-anchor="start" x="16" y="-250.9" font-family="DejaVu Sans" font-size="12.00">Nhân sự / Admin</text>
</g>
<!-- NhanSu&#45;&gt;QuanLyShipper -->
<g id="edge6" class="edge">
<title>NhanSu&#45;&gt;QuanLyShipper</title>
<path fill="none" stroke="#555555" d="M126.6,-270.5C146.74,-270.5 164.04,-270.5 164.04,-270.5 164.04,-270.5 164.04,-405.51 164.04,-405.51 164.04,-405.51 182.91,-405.51 182.91,-405.51"/>
<polygon fill="#555555" stroke="#555555" points="182.91,-407.96 189.91,-405.51 182.91,-403.06 182.91,-407.96"/>
</g>
<!-- ChamCong -->
<g id="node14" class="node">
<title>ChamCong</title>
<ellipse fill="#f7faff" stroke="#3b6ea8" cx="630.45" cy="-111.5" rx="52.15" ry="18"/>
<text text-anchor="middle" x="630.45" y="-108.4" font-family="DejaVu Sans" font-size="12.00">Chấm công</text>
</g>
<!-- NhanSu&#45;&gt;ChamCong -->
<g id="edge7" class="edge">
<title>NhanSu&#45;&gt;ChamCong</title>
<path fill="none" stroke="#555555" d="M116.04,-239.97C116.04,-193.96 116.04,-112.17 116.04,-112.17 116.04,-112.17 570.82,-112.17 570.82,-112.17"/>
<polygon fill="#555555" stroke="#555555" points="570.82,-114.62 577.82,-112.17 570.82,-109.72 570.82,-114.62"/>
</g>
<!-- QuanLyHopDong -->
<g id="node17" class="node">
<title>QuanLyHopDong</title>
<ellipse fill="#f7faff" stroke="#3b6ea8" cx="306.87" cy="-270.5" rx="125.73" ry="24.08"/>
<text text-anchor="middle" x="306.87" y="-273.9" font-family="DejaVu Sans" font-size="12.00">Quản lý hợp đồng</text>
<text text-anchor="middle" x="306.87" y="-260.9" font-family="DejaVu Sans" font-size="12.00">khách hàng / POS / shipper</text>
</g>
<!-- NhanSu&#45;&gt;QuanLyHopDong -->
<g id="edge8" class="edge">
<title>NhanSu&#45;&gt;QuanLyHopDong</title>
<path fill="none" stroke="#555555" d="M126.66,-258.48C126.66,-258.48 190.85,-258.48 190.85,-258.48"/>
<polygon fill="#555555" stroke="#555555" points="190.85,-260.93 197.85,-258.48 190.85,-256.03 190.85,-260.93"/>
</g>
<!-- DoiTac -->
<g id="node7" class="node">
<title>DoiTac</title>
<text text-anchor="start" x="49.5" y="-403.3" font-family="DejaVu Sans" font-size="24.00">👤</text>
<text text-anchor="start" x="18" y="-380.9" font-family="DejaVu Sans" font-size="12.00">Đối tác / nhà xe</text>
</g>
<!-- DoiTac&#45;&gt;QuanLyXe -->
<g id="edge9" class="edge">
<title>DoiTac&#45;&gt;QuanLyXe</title>
<path fill="none" stroke="#555555" d="M124.21,-426.27C195.87,-426.27 307.04,-426.27 307.04,-426.27 307.04,-426.27 307.04,-486.05 307.04,-486.05"/>
<polygon fill="#555555" stroke="#555555" points="304.59,-486.05 307.04,-493.05 309.49,-486.05 304.59,-486.05"/>
</g>
<!-- DoiTac&#45;&gt;QuanLyHopDong -->
<g id="edge10" class="edge">
<title>DoiTac&#45;&gt;QuanLyHopDong</title>
<path fill="none" stroke="#555555" d="M124.19,-389.49C137.12,-389.49 147.04,-389.49 147.04,-389.49 147.04,-389.49 147.04,-282.52 147.04,-282.52 147.04,-282.52 190.61,-282.52 190.61,-282.52"/>
<polygon fill="#555555" stroke="#555555" points="190.61,-284.97 197.61,-282.52 190.61,-280.07 190.61,-284.97"/>
</g>
<!-- KeToan -->
<g id="node8" class="node">
<title>KeToan</title>
<text text-anchor="start" x="614.95" y="-33.3" font-family="DejaVu Sans" font-size="24.00">👤</text>
<text text-anchor="start" x="607.45" y="-10.9" font-family="DejaVu Sans" font-size="12.00">Kế toán</text>
</g>
<!-- TinhLuong -->
<g id="node16" class="node">
<title>TinhLuong</title>
<ellipse fill="#fff9f0" stroke="#c47a00" cx="891.11" cy="-193.5" rx="62.87" ry="24.08"/>
<text text-anchor="middle" x="891.11" y="-196.9" font-family="DejaVu Sans" font-size="12.00">Tính lương</text>
<text text-anchor="middle" x="891.11" y="-183.9" font-family="DejaVu Sans" font-size="12.00">thưởng phạt</text>
</g>
<!-- KeToan&#45;&gt;TinhLuong -->
<g id="edge11" class="edge">
<title>KeToan&#45;&gt;TinhLuong</title>
<path fill="none" stroke="#555555" d="M665.46,-30.5C736.74,-30.5 892.04,-30.5 892.04,-30.5 892.04,-30.5 892.04,-162.45 892.04,-162.45"/>
<polygon fill="#555555" stroke="#555555" points="889.59,-162.45 892.04,-169.45 894.49,-162.45 889.59,-162.45"/>
</g>
<!-- BaoDuong -->
<g id="node10" class="node">
<title>BaoDuong</title>
<ellipse fill="#f7faff" stroke="#3b6ea8" cx="630.45" cy="-573.5" rx="69.09" ry="24.08"/>
<text text-anchor="middle" x="630.45" y="-576.9" font-family="DejaVu Sans" font-size="12.00">Lịch &amp; nhắc</text>
<text text-anchor="middle" x="630.45" y="-563.9" font-family="DejaVu Sans" font-size="12.00">bảo dưỡng xe</text>
</g>
<!-- QuanLyXe&#45;&gt;BaoDuong -->
<g id="edge12" class="edge">
<title>QuanLyXe&#45;&gt;BaoDuong</title>
<path fill="none" stroke="#555555" d="M392.46,-525.54C488.51,-525.54 631.04,-525.54 631.04,-525.54 631.04,-525.54 631.04,-542.24 631.04,-542.24"/>
<polygon fill="#555555" stroke="#555555" points="628.59,-542.24 631.04,-549.24 633.49,-542.24 628.59,-542.24"/>
<text text-anchor="middle" x="475.73" y="-546.5" font-family="DejaVu Sans" font-size="10.00">include</text>
</g>
<!-- QuanLyXe&#45;&gt;GPSXe -->
<g id="edge13" class="edge">
<title>QuanLyXe&#45;&gt;GPSXe</title>
<path fill="none" stroke="#555555" d="M374.53,-533.54C399.6,-533.54 422.04,-533.54 422.04,-533.54 422.04,-533.54 422.04,-638.31 422.04,-638.31 422.04,-638.31 570.59,-638.31 570.59,-638.31"/>
<polygon fill="#555555" stroke="#555555" points="570.59,-640.76 577.59,-638.31 570.59,-635.86 570.59,-640.76"/>
<text text-anchor="middle" x="475.73" y="-606.5" font-family="DejaVu Sans" font-size="10.00">include</text>
</g>
<!-- LichSuXe -->
<g id="node12" class="node">
<title>LichSuXe</title>
<ellipse fill="#f7faff" stroke="#3b6ea8" cx="630.45" cy="-493.5" rx="111.95" ry="24.08"/>
<text text-anchor="middle" x="630.45" y="-496.9" font-family="DejaVu Sans" font-size="12.00">Lịch sử vận hành</text>
<text text-anchor="middle" x="630.45" y="-483.9" font-family="DejaVu Sans" font-size="12.00">sửa chữa / trạng thái xe</text>
</g>
<!-- QuanLyXe&#45;&gt;LichSuXe -->
<g id="edge14" class="edge">
<title>QuanLyXe&#45;&gt;LichSuXe</title>
<path fill="none" stroke="#555555" d="M385.61,-505.5C385.61,-505.5 526.39,-505.5 526.39,-505.5"/>
<polygon fill="#555555" stroke="#555555" points="526.4,-507.95 533.39,-505.5 526.39,-503.05 526.4,-507.95"/>
<text text-anchor="middle" x="475.73" y="-497.5" font-family="DejaVu Sans" font-size="10.00">include</text>
</g>
<!-- QuanLyShipper&#45;&gt;ChamCong -->
<g id="edge15" class="edge">
<title>QuanLyShipper&#45;&gt;ChamCong</title>
<path fill="none" stroke="#555555" d="M399.25,-381.46C460.65,-381.46 530.04,-381.46 530.04,-381.46 530.04,-381.46 530.04,-120.83 530.04,-120.83 530.04,-120.83 578.53,-120.83 578.53,-120.83"/>
<polygon fill="#555555" stroke="#555555" points="578.53,-123.28 585.53,-120.83 578.53,-118.38 578.53,-123.28"/>
<text text-anchor="middle" x="475.73" y="-304.5" font-family="DejaVu Sans" font-size="10.00">include</text>
</g>
<!-- HieuSuat -->
<g id="node15" class="node">
<title>HieuSuat</title>
<ellipse fill="#f7faff" stroke="#3b6ea8" cx="630.45" cy="-413.5" rx="89.61" ry="24.08"/>
<text text-anchor="middle" x="630.45" y="-416.9" font-family="DejaVu Sans" font-size="12.00">Theo dõi hiệu suất</text>
<text text-anchor="middle" x="630.45" y="-403.9" font-family="DejaVu Sans" font-size="12.00">lịch sử giao hàng</text>
</g>
<!-- QuanLyShipper&#45;&gt;HieuSuat -->
<g id="edge16" class="edge">
<title>QuanLyShipper&#45;&gt;HieuSuat</title>
<path fill="none" stroke="#555555" d="M423.69,-405.5C423.69,-405.5 538.53,-405.5 538.53,-405.5"/>
<polygon fill="#555555" stroke="#555555" points="538.53,-407.95 545.53,-405.5 538.53,-403.05 538.53,-407.95"/>
<text text-anchor="middle" x="475.73" y="-411.5" font-family="DejaVu Sans" font-size="10.00">include</text>
</g>
<!-- HieuSuat&#45;&gt;TinhLuong -->
<g id="edge17" class="edge">
<title>HieuSuat&#45;&gt;TinhLuong</title>
<path fill="none" stroke="#555555" d="M720.48,-413.5C796.14,-413.5 892.04,-413.5 892.04,-413.5 892.04,-413.5 892.04,-224.88 892.04,-224.88"/>
<polygon fill="#555555" stroke="#555555" points="894.49,-224.88 892.04,-217.88 889.59,-224.88 894.49,-224.88"/>
<text text-anchor="middle" x="785.18" y="-272.5" font-family="DejaVu Sans" font-size="10.00">include</text>
</g>
<!-- KySo -->
<g id="node18" class="node">
<title>KySo</title>
<ellipse fill="#f7faff" stroke="#3b6ea8" cx="630.45" cy="-259.5" rx="28.87" ry="18"/>
<text text-anchor="middle" x="630.45" y="-256.4" font-family="DejaVu Sans" font-size="12.00">Ký số</text>
</g>
<!-- QuanLyHopDong&#45;&gt;KySo -->
<g id="edge18" class="edge">
<title>QuanLyHopDong&#45;&gt;KySo</title>
<path fill="none" stroke="#555555" d="M431.51,-267.15C431.51,-267.15 596.95,-267.15 596.95,-267.15"/>
<polygon fill="#555555" stroke="#555555" points="596.95,-269.6 603.95,-267.15 596.95,-264.7 596.95,-269.6"/>
<text text-anchor="middle" x="475.73" y="-256.5" font-family="DejaVu Sans" font-size="10.00">include</text>
</g>
<!-- LuuTruHopDong -->
<g id="node19" class="node">
<title>LuuTruHopDong</title>
<ellipse fill="#f7faff" stroke="#3b6ea8" cx="630.45" cy="-333.5" rx="84.29" ry="24.08"/>
<text text-anchor="middle" x="630.45" y="-336.9" font-family="DejaVu Sans" font-size="12.00">Lưu trữ &amp; tra cứu</text>
<text text-anchor="middle" x="630.45" y="-323.9" font-family="DejaVu Sans" font-size="12.00">hợp đồng</text>
</g>
<!-- QuanLyHopDong&#45;&gt;LuuTruHopDong -->
<g id="edge19" class="edge">
<title>QuanLyHopDong&#45;&gt;LuuTruHopDong</title>
<path fill="none" stroke="#555555" d="M403.03,-286.02C483.08,-286.02 584.04,-286.02 584.04,-286.02 584.04,-286.02 584.04,-306.36 584.04,-306.36"/>
<polygon fill="#555555" stroke="#555555" points="581.59,-306.36 584.04,-313.36 586.49,-306.36 581.59,-306.36"/>
<text text-anchor="middle" x="475.73" y="-352.5" font-family="DejaVu Sans" font-size="10.00">include</text>
</g>
<!-- GiaHan -->
<g id="node20" class="node">
<title>GiaHan</title>
<ellipse fill="#f7faff" stroke="#3b6ea8" cx="630.45" cy="-185.5" rx="84.29" ry="24.08"/>
<text text-anchor="middle" x="630.45" y="-188.9" font-family="DejaVu Sans" font-size="12.00">Gia hạn tự động</text>
<text text-anchor="middle" x="630.45" y="-175.9" font-family="DejaVu Sans" font-size="12.00">nhắc hết hiệu lực</text>
</g>
<!-- QuanLyHopDong&#45;&gt;GiaHan -->
<g id="edge20" class="edge">
<title>QuanLyHopDong&#45;&gt;GiaHan</title>
<path fill="none" stroke="#555555" d="M410.39,-256.81C482.21,-256.81 565.04,-256.81 565.04,-256.81 565.04,-256.81 565.04,-207.97 565.04,-207.97"/>
<polygon fill="#555555" stroke="#555555" points="567.49,-207.97 565.04,-200.97 562.59,-207.97 567.49,-207.97"/>
<text text-anchor="middle" x="475.73" y="-195.5" font-family="DejaVu Sans" font-size="10.00">extend</text>
</g>
<!-- PhanQuyenTang&#45;&gt;BaoCaoVanHanh -->
<g id="edge21" class="edge">
<title>PhanQuyenTang&#45;&gt;BaoCaoVanHanh</title>
<path fill="none" stroke="#555555" d="M404.7,-612.54C470.04,-612.54 544.04,-612.54 544.04,-612.54 544.04,-612.54 544.04,-712.62 544.04,-712.62"/>
<polygon fill="#555555" stroke="#555555" points="541.59,-712.62 544.04,-719.62 546.49,-712.62 541.59,-712.62"/>
<text text-anchor="middle" x="475.73" y="-660.5" font-family="DejaVu Sans" font-size="10.00">include</text>
</g>
</g>
</svg>
